<svg width="30" height="31" viewBox="0 0 30 31" fill="none" xmlns="http://www.w3.org/2000/svg">
<path fill-rule="evenodd" clip-rule="evenodd" d="M15.4544 30.8264C23.4876 30.8264 29.9998 24.3142 29.9998 16.2809C29.9998 8.2477 23.4876 1.73547 15.4544 1.73547C7.42116 1.73547 0.908936 8.2477 0.908936 16.2809C0.908936 24.3142 7.42116 30.8264 15.4544 30.8264Z" fill="#D8DCE7"/>
<path fill-rule="evenodd" clip-rule="evenodd" d="M14.5455 29.9173C22.5787 29.9173 29.0909 23.4051 29.0909 15.3719C29.0909 7.33864 22.5787 0.826416 14.5455 0.826416C6.51222 0.826416 0 7.33864 0 15.3719C0 23.4051 6.51222 29.9173 14.5455 29.9173Z" fill="black"/>
<path fill-rule="evenodd" clip-rule="evenodd" d="M14.5453 29.0087C22.0765 29.0087 28.1817 22.9035 28.1817 15.3723C28.1817 7.84112 22.0765 1.7359 14.5453 1.7359C7.01415 1.7359 0.908936 7.84112 0.908936 15.3723C0.908936 22.9035 7.01415 29.0087 14.5453 29.0087Z" fill="#121828"/>
<path d="M10.1006 9.13674V9.86615H11.5594V8.40733H10.83H10.1006V9.13674Z" fill="#75F148"/>
<path d="M17.5339 9.13674V9.86615H18.9928V8.40733H18.2633H17.5339V9.13674Z" fill="#75F148"/>
<path fill-rule="evenodd" clip-rule="evenodd" d="M11.5944 10.6477V11.3944H10.8476H10.1008V12.1239V12.8533L9.3714 12.8533H8.64199V13.6V14.3468H7.89521H7.14844V17.6638V20.9808H8.60726V18.0285H9.37155V19.5046V20.9808H10.8304V19.522L18.2633 19.522V20.2514V20.9808H19.7221V18.0285L20.4862 18.0285V19.5046V20.9808L21.945 20.9808V14.3468L21.1983 14.3468H20.4515V12.8533H19.7221H18.9927V11.3944L18.2459 11.3944H17.4991V9.9009H16.7697H16.0403V10.6477V11.3944H14.5467L13.0532 11.3944V9.9009H12.3238H11.5944V10.6477ZM13.0879 15.8229V16.5697L12.3238 16.5697H11.5596V15.0761L13.0879 15.0761V15.8229ZM17.5339 16.5697V15.8229V15.0761H16.0057V16.5697H16.7698H17.5339Z" fill="#75F148"/>
<path d="M10.865 21.7451V22.4745H13.7826V21.0157H12.3238H10.865V21.7451Z" fill="#75F148"/>
<path d="M15.311 21.7451V22.4745H18.2287V21.0157H16.7699H15.311V21.7451Z" fill="#75F148"/>
<g opacity="0.5">
<path fill-rule="evenodd" clip-rule="evenodd" d="M8.11529 5.89301C8.49192 5.89301 8.79724 5.58779 8.79724 5.21127C8.79724 4.83476 8.49192 4.52954 8.11529 4.52954C7.73867 4.52954 7.43335 4.83476 7.43335 5.21127C7.43335 5.58779 7.73867 5.89301 8.11529 5.89301Z" fill="white"/>
<path d="M6.50208 6.05938C7.15663 6.0962 7.32026 6.86483 6.5839 7.56528C5.59299 8.52756 4.85208 9.72937 4.33845 10.993C4.33845 10.993 4.17936 11.2898 3.91572 11.3721C3.39754 11.5353 2.87027 10.9957 3.14754 10.2921C3.78845 8.70256 4.75663 7.21529 6.07935 6.19165C6.20208 6.10438 6.27481 6.05756 6.50208 6.05938Z" fill="white"/>
</g>
</svg>
