<svg width="31" height="31" viewBox="0 0 31 31" fill="none" xmlns="http://www.w3.org/2000/svg">
<path fill-rule="evenodd" clip-rule="evenodd" d="M15.5196 30.3698C23.5528 30.3698 30.065 23.8576 30.065 15.8244C30.065 7.79115 23.5528 1.27893 15.5196 1.27893C7.48634 1.27893 0.974121 7.79115 0.974121 15.8244C0.974121 23.8576 7.48634 30.3698 15.5196 30.3698Z" fill="#EDDDCA"/>
<path fill-rule="evenodd" clip-rule="evenodd" d="M14.6106 29.4608C22.6439 29.4608 29.1561 22.9486 29.1561 14.9153C29.1561 6.8821 22.6439 0.369873 14.6106 0.369873C6.57741 0.369873 0.0651855 6.8821 0.0651855 14.9153C0.0651855 22.9486 6.57741 29.4608 14.6106 29.4608Z" fill="#EF8C01"/>
<path fill-rule="evenodd" clip-rule="evenodd" d="M14.6103 28.5521C22.1414 28.5521 28.2467 22.4469 28.2467 14.9157C28.2467 7.38458 22.1414 1.27936 14.6103 1.27936C7.0791 1.27936 0.973877 7.38458 0.973877 14.9157C0.973877 22.4469 7.0791 28.5521 14.6103 28.5521Z" fill="#FFB82A"/>
<path fill-rule="evenodd" clip-rule="evenodd" d="M19.3993 7.44189C19.773 7.44189 20.0767 7.74552 20.0767 8.11952V8.47858C20.0767 8.7628 19.9014 9.00639 19.6532 9.10696V10.0292H22.1236C22.1236 10.0292 22.7527 9.89454 22.6506 10.9813C22.6506 10.9813 22.6405 15.7064 19.1583 16.5448C18.2479 18.6271 16.307 19.1958 15.2586 19.3506V21.4429H16.8738C17.0808 21.4429 17.2485 21.6106 17.2485 21.8181V22.3509C17.2485 22.4913 17.1713 22.6134 17.0568 22.6781H17.6806C17.9106 22.6781 18.097 22.8645 18.097 23.0945V23.7911C18.097 24.0211 17.9106 24.2075 17.6806 24.2075H11.4228C11.1928 24.2075 11.0059 24.0211 11.0059 23.7911V23.0945C11.0059 22.8645 11.1928 22.6781 11.4228 22.6781H11.9996C11.8856 22.6134 11.808 22.4913 11.808 22.3509V21.8181C11.808 21.6106 11.9761 21.4429 12.1831 21.4429H13.8213V19.3132C11.5722 18.9175 10.5 17.6976 9.99352 16.5271C6.58118 15.6426 6.57159 10.9813 6.57159 10.9813C6.46906 9.89454 7.09863 10.0292 7.09863 10.0292H9.56614V9.11218C9.31076 9.01506 9.12917 8.76788 9.12917 8.47858V8.11952C9.12917 7.74552 9.43294 7.44189 9.80666 7.44189H19.3993ZM21.2975 11.1752H19.6532V14.0036C19.6484 14.3686 19.622 14.7088 19.577 15.0265C20.3906 14.5651 21.2597 13.5709 21.5726 11.4519C21.5726 11.4519 21.6507 11.1744 21.2975 11.1752ZM9.56623 11.1752H7.92474C7.57114 11.1744 7.64972 11.4519 7.64972 11.4519C7.9554 13.5244 8.79387 14.521 9.59162 14.9953C9.52358 14.4075 9.56623 14.0036 9.56623 14.0036V11.1752Z" fill="white"/>
<path fill-rule="evenodd" clip-rule="evenodd" d="M14.6088 15.8223C16.2921 15.8223 17.6568 14.4577 17.6568 12.7744C17.6568 11.091 16.2921 9.72638 14.6088 9.72638C12.9254 9.72638 11.5608 11.091 11.5608 12.7744C11.5608 14.4577 12.9254 15.8223 14.6088 15.8223Z" fill="#FFB82A"/>
<path d="M15.1838 14.7348H14.4338V11.9166C14.161 12.1712 13.8383 12.3621 13.4656 12.4848V11.803C13.661 11.7394 13.8747 11.6212 14.1019 11.4394C14.3338 11.2621 14.4883 11.053 14.5747 10.8167H15.1838V14.7348Z" fill="white"/>
<g opacity="0.5">
<path fill-rule="evenodd" clip-rule="evenodd" d="M8.18048 5.43646C8.55711 5.43646 8.86242 5.13124 8.86242 4.75473C8.86242 4.37822 8.55711 4.073 8.18048 4.073C7.80385 4.073 7.49854 4.37822 7.49854 4.75473C7.49854 5.13124 7.80385 5.43646 8.18048 5.43646Z" fill="white"/>
<path d="M6.56727 5.60283C7.22181 5.63965 7.38545 6.40829 6.64909 7.10874C5.65818 8.07101 4.91727 9.27283 4.40363 10.5365C4.40363 10.5365 4.24454 10.8333 3.98091 10.9156C3.46273 11.0787 2.93545 10.5392 3.21273 9.83556C3.85363 8.24601 4.82181 6.75874 6.14454 5.73511C6.26727 5.64783 6.33999 5.60102 6.56727 5.60283Z" fill="white"/>
</g>
</svg>
