<svg width="30" height="30" viewBox="0 0 30 30" fill="none" xmlns="http://www.w3.org/2000/svg">
<path fill-rule="evenodd" clip-rule="evenodd" d="M15.4544 30C23.4876 30 29.9998 23.4877 29.9998 15.4545C29.9998 7.42128 23.4876 0.909058 15.4544 0.909058C7.42116 0.909058 0.908936 7.42128 0.908936 15.4545C0.908936 23.4877 7.42116 30 15.4544 30Z" fill="#F5DFC4"/>
<path fill-rule="evenodd" clip-rule="evenodd" d="M14.5455 29.0909C22.5787 29.0909 29.0909 22.5787 29.0909 14.5455C29.0909 6.51222 22.5787 0 14.5455 0C6.51222 0 0 6.51222 0 14.5455C0 22.5787 6.51222 29.0909 14.5455 29.0909Z" fill="#CD5A02"/>
<path fill-rule="evenodd" clip-rule="evenodd" d="M14.5453 28.1823C22.0765 28.1823 28.1817 22.077 28.1817 14.5459C28.1817 7.0147 22.0765 0.909485 14.5453 0.909485C7.01415 0.909485 0.908936 7.0147 0.908936 14.5459C0.908936 22.077 7.01415 28.1823 14.5453 28.1823Z" fill="#FA872A"/>
<path fill-rule="evenodd" clip-rule="evenodd" d="M17.0242 12.1919L14.5457 8.47412L12.0671 12.1919H17.0242Z" fill="white"/>
<path fill-rule="evenodd" clip-rule="evenodd" d="M17.0242 13.0178L14.5457 23.3446L12.0671 13.0178L17.0242 13.0178Z" fill="white"/>
<path fill-rule="evenodd" clip-rule="evenodd" d="M23.6334 12.1919L21.1548 8.47412L18.6763 12.1919H23.6334Z" fill="white"/>
<path fill-rule="evenodd" clip-rule="evenodd" d="M23.1013 13.0178L15.2529 23.3446L18.1442 13.0178L23.1013 13.0178Z" fill="white"/>
<path fill-rule="evenodd" clip-rule="evenodd" d="M10.4154 12.1921L7.9368 8.47437L5.45825 12.1921H10.4154Z" fill="white"/>
<path fill-rule="evenodd" clip-rule="evenodd" d="M10.8284 13.0178L13.7197 23.3446L5.87134 13.0178L10.8284 13.0178Z" fill="white"/>
<path fill-rule="evenodd" clip-rule="evenodd" d="M20.3289 8.47418L17.8504 12.192L15.3718 8.47418H20.3289Z" fill="white"/>
<path fill-rule="evenodd" clip-rule="evenodd" d="M13.7198 8.47418L11.2412 12.192L8.7627 8.47418H13.7198Z" fill="white"/>
<g opacity="0.5">
<path fill-rule="evenodd" clip-rule="evenodd" d="M8.11529 5.06659C8.49192 5.06659 8.79724 4.76137 8.79724 4.38486C8.79724 4.00835 8.49192 3.70312 8.11529 3.70312C7.73867 3.70312 7.43335 4.00835 7.43335 4.38486C7.43335 4.76137 7.73867 5.06659 8.11529 5.06659Z" fill="white"/>
<path d="M6.50208 5.23296C7.15663 5.26978 7.32026 6.03841 6.5839 6.73887C5.59299 7.70114 4.85208 8.90296 4.33845 10.1666C4.33845 10.1666 4.17936 10.4634 3.91572 10.5457C3.39754 10.7089 2.87027 10.1693 3.14754 9.46568C3.78845 7.87614 4.75663 6.38887 6.07935 5.36523C6.20208 5.27796 6.27481 5.23114 6.50208 5.23296Z" fill="white"/>
</g>
</svg>
