<svg width="31" height="31" viewBox="0 0 31 31" fill="none" xmlns="http://www.w3.org/2000/svg">
<path fill-rule="evenodd" clip-rule="evenodd" d="M15.5413 30.8264C23.5745 30.8264 30.0868 24.3142 30.0868 16.2809C30.0868 8.24769 23.5745 1.73547 15.5413 1.73547C7.50807 1.73547 0.99585 8.24769 0.99585 16.2809C0.99585 24.3142 7.50807 30.8264 15.5413 30.8264Z" fill="#FBC9D0"/>
<path fill-rule="evenodd" clip-rule="evenodd" d="M14.6324 29.9173C22.6656 29.9173 29.1778 23.4051 29.1778 15.3719C29.1778 7.33864 22.6656 0.826416 14.6324 0.826416C6.59914 0.826416 0.0869141 7.33864 0.0869141 15.3719C0.0869141 23.4051 6.59914 29.9173 14.6324 29.9173Z" fill="#940311"/>
<path fill-rule="evenodd" clip-rule="evenodd" d="M14.632 29.0087C22.1632 29.0087 28.2684 22.9035 28.2684 15.3723C28.2684 7.84112 22.1632 1.7359 14.632 1.7359C7.10082 1.7359 0.995605 7.84112 0.995605 15.3723C0.995605 22.9035 7.10082 29.0087 14.632 29.0087Z" fill="#FB0B1F"/>
<path fill-rule="evenodd" clip-rule="evenodd" d="M12.6624 7.95593L18.9292 8.03031L16.4865 13.0033L21.7492 13.0666L10.6588 24.6066L14.2315 16.7702L8.42871 16.7741L12.6624 7.95593Z" fill="white"/>
<g opacity="0.5">
<path fill-rule="evenodd" clip-rule="evenodd" d="M8.20221 5.89301C8.57884 5.89301 8.88415 5.58779 8.88415 5.21127C8.88415 4.83476 8.57884 4.52954 8.20221 4.52954C7.82558 4.52954 7.52026 4.83476 7.52026 5.21127C7.52026 5.58779 7.82558 5.89301 8.20221 5.89301Z" fill="white"/>
<path d="M6.589 6.05938C7.24354 6.0962 7.40718 6.86483 6.67081 7.56528C5.67991 8.52756 4.939 9.72937 4.42536 10.993C4.42536 10.993 4.26627 11.2898 4.00263 11.3721C3.48445 11.5353 2.95718 10.9957 3.23445 10.2921C3.87536 8.70256 4.84354 7.21528 6.16627 6.19165C6.289 6.10438 6.36172 6.05756 6.589 6.05938Z" fill="white"/>
</g>
</svg>
