<svg width="30" height="30" viewBox="0 0 30 30" fill="none" xmlns="http://www.w3.org/2000/svg">
<path fill-rule="evenodd" clip-rule="evenodd" d="M15.4547 30C23.4879 30 30.0001 23.4878 30.0001 15.4545C30.0001 7.42129 23.4879 0.909058 15.4547 0.909058C7.42141 0.909058 0.90918 7.42129 0.90918 15.4545C0.90918 23.4878 7.42141 30 15.4547 30Z" fill="#DEE0E2"/>
<path fill-rule="evenodd" clip-rule="evenodd" d="M14.5455 29.0909C22.5787 29.0909 29.0909 22.5787 29.0909 14.5455C29.0909 6.51223 22.5787 0 14.5455 0C6.51223 0 0 6.51223 0 14.5455C0 22.5787 6.51223 29.0909 14.5455 29.0909Z" fill="#0A0A0C"/>
<path fill-rule="evenodd" clip-rule="evenodd" d="M14.5456 28.1824C22.0768 28.1824 28.182 22.0771 28.182 14.5459C28.182 7.01477 22.0768 0.909546 14.5456 0.909546C7.01441 0.909546 0.90918 7.01477 0.90918 14.5459C0.90918 22.0771 7.01441 28.1824 14.5456 28.1824Z" fill="#23242B"/>
<path fill-rule="evenodd" clip-rule="evenodd" d="M10.6115 12.2043C9.51392 11.9284 8.70068 10.9342 8.70068 9.75172C8.70068 8.35568 9.8337 7.22266 11.2297 7.22266C12.6258 7.22266 13.7588 8.35568 13.7588 9.75172C13.7588 10.9342 12.945 11.9284 11.848 12.2043V16.3863H10.6115V12.2043Z" fill="white"/>
<path fill-rule="evenodd" clip-rule="evenodd" d="M21.5144 18.1595C21.5144 17.4771 20.9602 16.923 20.2777 16.923H8.8127C8.13028 16.923 7.57666 17.4771 7.57666 18.1595V20.6319C7.57666 21.3148 8.13028 21.8683 8.8127 21.8683H20.2777C20.9602 21.8683 21.5144 21.3148 21.5144 20.6319V18.1595Z" fill="white"/>
<path fill-rule="evenodd" clip-rule="evenodd" d="M18.8307 14.5121C19.0713 14.5121 19.2669 14.7077 19.2669 14.9482V16.3611H14.2087V14.9482C14.2087 14.7077 14.4038 14.5121 14.6443 14.5121H18.8307Z" fill="#F34144"/>
<g opacity="0.5">
<path fill-rule="evenodd" clip-rule="evenodd" d="M8.11554 5.06659C8.49217 5.06659 8.79748 4.76137 8.79748 4.38486C8.79748 4.00835 8.49217 3.70312 8.11554 3.70312C7.73891 3.70312 7.43359 4.00835 7.43359 4.38486C7.43359 4.76137 7.73891 5.06659 8.11554 5.06659Z" fill="white"/>
<path d="M6.50209 5.23308C7.15663 5.2699 7.32027 6.03854 6.5839 6.73899C5.59299 7.70127 4.85209 8.90308 4.33845 10.1667C4.33845 10.1667 4.17936 10.4635 3.91572 10.5458C3.39754 10.709 2.87027 10.1694 3.14754 9.46581C3.78845 7.87627 4.75663 6.38899 6.07936 5.36536C6.20209 5.27808 6.27481 5.23127 6.50209 5.23308Z" fill="white"/>
</g>
</svg>
