<svg width="30" height="30" viewBox="0 0 30 30" fill="none" xmlns="http://www.w3.org/2000/svg">
<path fill-rule="evenodd" clip-rule="evenodd" d="M15.4547 30C23.4879 30 30.0001 23.4878 30.0001 15.4545C30.0001 7.42129 23.4879 0.909058 15.4547 0.909058C7.42141 0.909058 0.90918 7.42129 0.90918 15.4545C0.90918 23.4878 7.42141 30 15.4547 30Z" fill="#FECFCF"/>
<path fill-rule="evenodd" clip-rule="evenodd" d="M14.5455 29.0909C22.5787 29.0909 29.0909 22.5787 29.0909 14.5455C29.0909 6.51223 22.5787 0 14.5455 0C6.51223 0 0 6.51223 0 14.5455C0 22.5787 6.51223 29.0909 14.5455 29.0909Z" fill="#B61702"/>
<path fill-rule="evenodd" clip-rule="evenodd" d="M14.5456 28.1824C22.0768 28.1824 28.182 22.0771 28.182 14.5459C28.182 7.01477 22.0768 0.909546 14.5456 0.909546C7.0144 0.909546 0.90918 7.01477 0.90918 14.5459C0.90918 22.0771 7.0144 28.1824 14.5456 28.1824Z" fill="#FF2D10"/>
<path fill-rule="evenodd" clip-rule="evenodd" d="M14.5456 11.1655C15.9683 8.46001 19.2728 8.46001 20.6956 9.81274C22.1183 11.1655 22.5728 13.8705 21.1501 16.5764C20.1547 18.6036 16.6819 20.6355 14.5456 21.9855C12.4092 20.6355 8.93647 18.6036 7.94102 16.5764C6.51829 13.8705 6.97284 11.1655 8.39556 9.81274C9.81829 8.46001 13.1228 8.46001 14.5456 11.1655Z" fill="#FF4C4F" stroke="white" stroke-width="2"/>
<g opacity="0.5">
<path fill-rule="evenodd" clip-rule="evenodd" d="M8.11554 5.06659C8.49217 5.06659 8.79748 4.76137 8.79748 4.38486C8.79748 4.00835 8.49217 3.70312 8.11554 3.70312C7.73891 3.70312 7.43359 4.00835 7.43359 4.38486C7.43359 4.76137 7.73891 5.06659 8.11554 5.06659Z" fill="white"/>
<path d="M6.50205 5.23302C7.1566 5.26984 7.32024 6.03848 6.58387 6.73893C5.59296 7.7012 4.85205 8.90393 4.33842 10.1662C4.33842 10.1662 4.17933 10.4635 3.92024 10.5453C3.39751 10.7094 2.87024 10.1712 3.14751 9.46575C3.78842 7.8753 4.7566 6.38893 6.07933 5.36529C6.20205 5.27802 6.27478 5.2312 6.50205 5.23302Z" fill="white"/>
</g>
</svg>
