<svg width="30" height="31" viewBox="0 0 30 31" fill="none" xmlns="http://www.w3.org/2000/svg">
<path fill-rule="evenodd" clip-rule="evenodd" d="M15.4544 30.2959C23.4876 30.2959 29.9998 23.7836 29.9998 15.7504C29.9998 7.71718 23.4876 1.20496 15.4544 1.20496C7.42116 1.20496 0.908936 7.71718 0.908936 15.7504C0.908936 23.7836 7.42116 30.2959 15.4544 30.2959Z" fill="#FBEBC3"/>
<path fill-rule="evenodd" clip-rule="evenodd" d="M14.5455 29.3868C22.5787 29.3868 29.0909 22.8746 29.0909 14.8414C29.0909 6.80812 22.5787 0.295898 14.5455 0.295898C6.51222 0.295898 0 6.80812 0 14.8414C0 22.8746 6.51222 29.3868 14.5455 29.3868Z" fill="#A57503"/>
<path fill-rule="evenodd" clip-rule="evenodd" d="M14.5453 28.4782C22.0765 28.4782 28.1817 22.3729 28.1817 14.8418C28.1817 7.3106 22.0765 1.20538 14.5453 1.20538C7.01415 1.20538 0.908936 7.3106 0.908936 14.8418C0.908936 22.3729 7.01415 28.4782 14.5453 28.4782Z" fill="#FFBF10"/>
<path fill-rule="evenodd" clip-rule="evenodd" d="M14.5325 4.38641C18.5525 4.38641 22.4854 9.21174 22.4854 13.0928C22.4854 16.9738 18.5525 19.4551 14.5325 19.4551C10.5125 19.4551 6.57959 16.9738 6.57959 13.0928C6.57959 9.21174 10.5125 4.38641 14.5325 4.38641Z" fill="#ED462F"/>
<path fill-rule="evenodd" clip-rule="evenodd" d="M22.3849 10.3083C21.1828 7.16247 18.2528 3.98264 14.5844 3.93224C14.499 3.93174 14.4136 3.93291 14.3265 3.93576C10.1291 4.11307 6.44059 8.29814 6.14089 12.649C5.93662 15.606 8.0881 18.0856 10.6481 19.1471C14.0821 20.5702 19.3494 19.9943 21.819 16.5536C23.1384 14.7169 23.1652 12.3466 22.3849 10.3083ZM7.52904 10.6331C8.59222 7.85029 11.1556 4.88695 14.4908 4.84124C14.5326 4.84107 14.5762 4.84124 14.618 4.84191C18.4254 4.93031 21.9314 8.90091 22.0301 12.9669C22.0837 15.246 20.3642 17.2786 18.3048 18.2045C15.1304 19.6343 10.1192 19.189 7.89571 15.8973C6.83421 14.3235 6.87439 12.3423 7.52904 10.6331Z" fill="#8D190A"/>
<path fill-rule="evenodd" clip-rule="evenodd" d="M12.2787 8.53218C12.2744 8.49016 12.2722 8.44763 12.2722 8.40477C12.2722 7.48072 13.285 6.73047 14.5325 6.73047C15.78 6.73047 16.7928 7.48072 16.7928 8.40477C16.7928 8.44763 16.7906 8.49016 16.7863 8.53218C16.0866 8.23717 15.3266 8.06991 14.5325 8.06991C13.7384 8.06991 12.9784 8.23717 12.2787 8.53218Z" fill="white"/>
<path fill-rule="evenodd" clip-rule="evenodd" d="M14.5325 19.9574C18.0001 19.9574 20.8111 17.4462 20.8111 14.3485C20.8111 11.2508 18.0001 8.73956 14.5325 8.73956C11.0649 8.73956 8.25391 11.2508 8.25391 14.3485C8.25391 17.4462 11.0649 19.9574 14.5325 19.9574Z" fill="#6F1006"/>
<path fill-rule="evenodd" clip-rule="evenodd" d="M8.60226 15.8035C8.81154 12.9289 11.3883 10.6544 14.5326 10.6544C17.6786 10.6544 20.2554 12.9306 20.463 15.8068C20.7928 15.7449 21.1294 15.765 21.4508 15.8805C22.6245 16.3041 23.1435 17.8461 22.6111 19.3245C22.1842 20.5066 21.2114 21.2918 20.2386 21.3404C19.517 23.6359 17.2333 25.3152 14.5326 25.3152C11.8303 25.3152 9.54823 23.6359 8.82661 21.3404C7.85887 21.2818 6.89447 20.4999 6.47087 19.3245C5.93845 17.8461 6.45748 16.3041 7.63116 15.8805C7.94593 15.7667 8.27744 15.7449 8.60226 15.8035Z" fill="#FEEDCC"/>
<path fill-rule="evenodd" clip-rule="evenodd" d="M20.8648 15.318C20.4044 12.3895 17.5631 10.2503 14.6113 10.2004C12.0714 10.186 9.81779 11.4963 8.73954 13.6399C8.35948 14.3942 8.19205 15.318 8.19205 15.318C5.94346 15.3951 5.43615 17.8127 6.04392 19.4787C6.61653 21.0542 8.49175 21.7658 8.49175 21.7658C9.71733 24.9804 13.5582 26.4538 16.6606 25.4308C19.157 24.607 20.5969 21.754 20.5969 21.754C21.3018 21.6117 21.9313 21.1898 22.3851 20.6373C23.9974 18.6733 22.9979 15.3465 20.8648 15.318ZM9.05605 15.8387C9.27203 13.1043 11.8153 11.1542 14.464 11.1094C16.9989 11.0951 19.4367 12.8356 19.9273 15.235C20.0327 15.7517 19.8623 15.9466 19.9066 16.0429C19.948 16.1331 20.1778 16.1368 20.9988 16.2372C23.1787 16.5034 22.4923 20.284 20.5685 20.8282C19.8787 21.0224 19.8067 21.2015 19.8067 21.2015C18.2898 25.9415 11.4587 25.6267 9.57173 21.9617C9.47504 21.7734 9.42303 21.6043 9.37811 21.4584C9.29002 21.1721 9.22919 20.9744 8.91206 20.8934C8.91206 20.8934 7.98784 20.6808 7.54583 20.2237C6.1796 18.8123 6.8443 16.0882 8.40307 16.2339C8.99075 16.2992 9.05605 15.8387 9.05605 15.8387Z" fill="#A7742D"/>
<path fill-rule="evenodd" clip-rule="evenodd" d="M11.9627 19.6444C11.2796 19.4468 10.7656 18.6046 10.7656 17.5967C10.7656 16.4414 11.4404 15.5038 12.2725 15.5038C13.1046 15.5038 13.7794 16.4414 13.7794 17.5967C13.7794 17.6687 13.776 17.7407 13.771 17.8127C12.82 18.0789 12.1051 18.7855 11.9627 19.6444ZM15.437 17.8043C15.432 17.7373 15.4286 17.667 15.4286 17.5967C15.4286 16.4414 16.105 15.5038 16.9355 15.5038C17.7676 15.5038 18.4424 16.4414 18.4424 17.5967C18.4424 18.5929 17.9401 19.4267 17.2687 19.6376C17.123 18.7737 16.398 18.0655 15.437 17.8043Z" fill="white"/>
<path fill-rule="evenodd" clip-rule="evenodd" d="M15.6896 17.8864C15.6896 17.8797 15.6896 17.8713 15.6896 17.8646C15.6896 17.0793 16.1031 16.4414 16.6104 16.4414C17.1194 16.4414 17.5313 17.0793 17.5313 17.8646C17.5313 18.3803 17.3538 18.834 17.0876 19.0835C16.8214 18.5494 16.3174 18.1191 15.6896 17.8864ZM12.1685 19.0366C11.9274 18.7804 11.77 18.3501 11.77 17.8646C11.77 17.0793 12.1819 16.4414 12.6909 16.4414C13.1982 16.4414 13.6101 17.0776 13.6117 17.8612C12.9688 18.0805 12.4515 18.5058 12.1685 19.0366Z" fill="#0457CB"/>
<path fill-rule="evenodd" clip-rule="evenodd" d="M12.7746 17.3623C12.9133 17.3623 13.0257 17.2499 13.0257 17.1112C13.0257 16.9725 12.9133 16.86 12.7746 16.86C12.6359 16.86 12.5234 16.9725 12.5234 17.1112C12.5234 17.2499 12.6359 17.3623 12.7746 17.3623Z" fill="white"/>
<path fill-rule="evenodd" clip-rule="evenodd" d="M16.5986 17.3623C16.7373 17.3623 16.8497 17.2499 16.8497 17.1112C16.8497 16.9725 16.7373 16.86 16.5986 16.86C16.4599 16.86 16.3474 16.9725 16.3474 17.1112C16.3474 17.2499 16.4599 17.3623 16.5986 17.3623Z" fill="white"/>
<path fill-rule="evenodd" clip-rule="evenodd" d="M10.2632 15.4369C10.2632 15.4369 12.0212 13.9864 13.4444 15.7717C13.4444 15.7717 13.3288 13.7215 11.7701 13.5951C11.7701 13.5951 10.7705 13.416 10.2632 15.4369ZM19.1068 15.4369C19.1068 15.4369 17.3488 13.9865 15.9256 15.7718C15.9256 15.7718 16.0428 13.7216 17.5999 13.5952C17.5999 13.5952 18.6011 13.4161 19.1068 15.4369Z" fill="#270D01"/>
<path fill-rule="evenodd" clip-rule="evenodd" d="M17.1279 19.7733C18.2882 19.3447 19.137 18.8056 19.137 18.7855C19.137 18.7185 19.4033 22.3132 16.6256 21.9666C16.6256 21.9666 14.7956 23.949 12.6073 21.9666C12.6073 21.9666 9.49476 21.7188 9.9284 18.7855C9.9284 18.7855 10.8359 19.3916 12.1067 19.8353C12.1502 20.9252 13.2586 21.7992 14.6164 21.7992C16.0011 21.7992 17.1245 20.8917 17.1279 19.7733Z" fill="#270D01"/>
<g opacity="0.5">
<path fill-rule="evenodd" clip-rule="evenodd" d="M8.11529 5.36273C8.49192 5.36273 8.79724 5.05751 8.79724 4.681C8.79724 4.30449 8.49192 3.99927 8.11529 3.99927C7.73867 3.99927 7.43335 4.30449 7.43335 4.681C7.43335 5.05751 7.73867 5.36273 8.11529 5.36273Z" fill="white"/>
<path d="M6.50205 5.52923C7.1566 5.56604 7.32023 6.33468 6.58387 7.03513C5.59296 7.99741 4.85205 9.20013 4.33842 10.4624C4.33842 10.4624 4.17933 10.7597 3.92023 10.8415C3.39751 11.0056 2.87024 10.4674 3.14751 9.76195C3.78842 8.1715 4.7566 6.68513 6.07932 5.6615C6.20205 5.57423 6.27478 5.52741 6.50205 5.52923Z" fill="white"/>
</g>
</svg>
