<svg width="31" height="31" viewBox="0 0 31 31" fill="none" xmlns="http://www.w3.org/2000/svg">
<path fill-rule="evenodd" clip-rule="evenodd" d="M15.5848 30.0012C23.618 30.0012 30.1302 23.6355 30.1302 15.7829C30.1302 7.93039 23.618 1.56464 15.5848 1.56464C7.55153 1.56464 1.03931 7.93039 1.03931 15.7829C1.03931 23.6355 7.55153 30.0012 15.5848 30.0012Z" fill="#D7DCE2"/>
<path fill-rule="evenodd" clip-rule="evenodd" d="M14.6758 29.1126C22.7091 29.1126 29.2213 22.7469 29.2213 14.8943C29.2213 7.04178 22.7091 0.676025 14.6758 0.676025C6.64259 0.676025 0.130371 7.04178 0.130371 14.8943C0.130371 22.7469 6.64259 29.1126 14.6758 29.1126Z" fill="#060818"/>
<path fill-rule="evenodd" clip-rule="evenodd" d="M14.6757 28.2245C22.2069 28.2245 28.3121 22.2566 28.3121 14.8948C28.3121 7.53302 22.2069 1.56512 14.6757 1.56512C7.14452 1.56512 1.03931 7.53302 1.03931 14.8948C1.03931 22.2566 7.14452 28.2245 14.6757 28.2245Z" fill="#151C52"/>
<path fill-rule="evenodd" clip-rule="evenodd" d="M20.7808 12.8104C21.6598 11.2143 20.7086 8.91258 18.6591 7.67203C16.6047 6.42853 14.2278 6.71581 13.3488 8.31198L8.57499 16.9804C7.69597 18.5766 8.64712 20.8783 10.7015 22.1218C12.7511 23.3624 15.128 23.0751 16.007 21.4789L20.7808 12.8104Z" fill="#09E3FB"/>
<path fill-rule="evenodd" clip-rule="evenodd" d="M16.6354 6.94753L16.6842 6.9537L16.733 6.95987L16.7798 6.96955L16.8285 6.97572L16.8754 6.9854L16.9271 6.99804L16.9758 7.00421L17.0276 7.01685L17.0744 7.02653L17.1261 7.03917L17.171 7.05235L17.2227 7.06499L17.2744 7.07763L17.3242 7.09377L17.3691 7.10696L17.4189 7.1231L17.4687 7.13924L17.5185 7.15539L17.5683 7.17153L17.6181 7.18768L17.6679 7.20382L17.7157 7.22347L17.7685 7.24608L17.8183 7.26223L17.8661 7.28188L17.914 7.30153L17.9667 7.32414L18.0127 7.34729L18.0654 7.36991L18.1113 7.39306L18.1641 7.41567L18.21 7.43883L18.2609 7.46494L18.3068 7.4881L18.3576 7.51421L18.4084 7.54033L18.4544 7.56348L18.5033 7.59311L18.5521 7.62273L18.603 7.64884L18.6519 7.67847L18.6959 7.70513L18.7428 7.73825L18.7917 7.76787L18.8406 7.7975L18.8827 7.82766L18.9297 7.86079L18.9766 7.89391L19.0187 7.92408L19.0657 7.9572L19.1126 7.99033L19.1528 8.024L19.1948 8.05416L19.2399 8.09079L19.282 8.12096L19.327 8.15759L19.3671 8.19126L19.4073 8.22493L19.4455 8.2621L19.4905 8.29873L19.5307 8.3324L19.5689 8.36958L19.6071 8.40675L19.6453 8.44393L19.6836 8.4811L19.7218 8.51828L19.76 8.55545L19.7982 8.59262L19.8316 8.62684L19.8678 8.66751L19.9041 8.70819L19.9375 8.74241L19.9738 8.78309L20.0052 8.8208L20.0414 8.86148L20.0709 8.9027L20.1072 8.94338L20.1386 8.9811L20.1681 9.02232L20.1995 9.06004L20.229 9.10126L20.2633 9.14544L20.2928 9.18667L20.3174 9.22493L20.3468 9.26615L20.3763 9.30737L20.4058 9.34859L20.4333 9.39332L20.4579 9.43158L20.4855 9.47631L20.5081 9.51807L20.5376 9.55929L20.5602 9.60106L20.5829 9.64282L20.6104 9.68755L20.6331 9.72931L20.6538 9.77458L20.6765 9.81635L20.6991 9.85811L20.7199 9.90338L20.7357 9.94569L20.7583 9.98746L20.7791 10.0327L20.7949 10.075L20.8156 10.1203L20.8315 10.1626L20.8522 10.2079L20.868 10.2502L20.8839 10.2925L20.8978 10.3383L20.9136 10.3806L20.9275 10.4264L20.9434 10.4687L20.9573 10.5145L20.9712 10.5604L20.9802 10.6032L20.9941 10.649L21.0051 10.6884L21.019 10.7342L21.0261 10.7805L21.0351 10.8234L21.0441 10.8662L21.0531 10.9091L21.0602 10.9554L21.0692 10.9983L21.0763 11.0446L21.0804 11.0845L21.0875 11.1309L21.0897 11.1743L21.0988 11.2171L21.101 11.2605L21.1032 11.3039L21.1054 11.3473L21.1076 11.3907L21.1098 11.4341L21.112 11.4775L21.1073 11.5214L21.1095 11.5648L21.1069 11.6053L21.1071 11.6522L21.1044 11.6926L21.1018 11.733L21.0971 11.777L21.0925 11.8209L21.0898 11.8613L21.0852 11.9053L21.0757 11.9462L21.0711 11.9902L21.0635 12.0276L21.054 12.0686L21.0494 12.1125L21.0399 12.1535L21.0304 12.1945L21.0209 12.2355L21.0065 12.2735L20.9951 12.318L20.9807 12.356L20.9712 12.3969L20.9568 12.4349L20.9404 12.4765L20.926 12.5145L20.9116 12.5525L20.8953 12.594L20.8809 12.632L20.8597 12.6706L20.8453 12.7086L20.8241 12.7471L20.8029 12.7857L20.7836 12.8207L16.0185 21.4815L15.9973 21.52L15.978 21.5551L15.9568 21.5936L15.9307 21.6292L15.9114 21.6643L15.8872 21.6964L15.8611 21.7319L15.837 21.764L15.8108 21.7996L15.7867 21.8317L15.7625 21.8638L15.7334 21.8929L15.7073 21.9285L15.6783 21.9576L15.6541 21.9897L15.625 22.0189L15.596 22.048L15.5669 22.0771L15.533 22.1033L15.5039 22.1324L15.4748 22.1615L15.4428 22.1842L15.4138 22.2133L15.3798 22.2395L15.3458 22.2656L15.3138 22.2883L15.2799 22.3145L15.2478 22.3371L15.2139 22.3633L15.177 22.383L15.145 22.4056L15.1061 22.4288L15.0741 22.4515L15.0372 22.4712L15.0003 22.4909L14.9634 22.5106L14.9264 22.5303L14.8895 22.55L14.8526 22.5697L14.8108 22.5864L14.7758 22.6026L14.734 22.6193L14.6971 22.639L14.6572 22.6522L14.6154 22.669L14.5756 22.6822L14.5357 22.6954L14.4939 22.7122L14.454 22.7254L14.4141 22.7386L14.3694 22.7489L14.3295 22.7621L14.2847 22.7724L14.2449 22.7856L14.202 22.7924L14.1573 22.8026L14.1144 22.8094L14.0697 22.8197L14.0268 22.8264L13.9821 22.8367L13.9392 22.8435L13.8964 22.8502L13.8487 22.854L13.8058 22.8608L13.7581 22.8646L13.7153 22.8713L13.6676 22.8751L13.6198 22.8789L13.5789 22.8822L13.5312 22.886L13.4854 22.8863L13.4377 22.8901L13.3919 22.8904L13.3461 22.8907L13.2954 22.888L13.2496 22.8883L13.2038 22.8886L13.1531 22.8859L13.1093 22.8827L13.0586 22.8801L13.0128 22.8804L12.964 22.8742L12.9153 22.868L12.8665 22.8618L12.8158 22.8592L12.772 22.856L12.7232 22.8498L12.6715 22.8372L12.6227 22.831L12.574 22.8248L12.5271 22.8151L12.4784 22.809L12.4267 22.7963L12.3798 22.7866L12.3281 22.774L12.2813 22.7643L12.2296 22.7517L12.1828 22.742L12.133 22.7259L12.0812 22.7132L12.0363 22.7L11.9866 22.6839L11.9348 22.6713L11.8851 22.6551L11.8353 22.639L11.7855 22.6228L11.7376 22.6032L11.6878 22.587L11.64 22.5674L11.5853 22.5483L11.5374 22.5286L11.4896 22.509L11.4417 22.4893L11.389 22.4667L11.3411 22.4471L11.2903 22.4209L11.2424 22.4013L11.1965 22.3781L11.1457 22.352L11.0929 22.3294L11.047 22.3063L10.9981 22.2766L10.9473 22.2505L10.9013 22.2274L10.8524 22.1977L10.8035 22.1681L10.7527 22.142L10.7087 22.1153L10.6598 22.0857L10.6129 22.0526L10.564 22.023L10.5151 21.9934L10.473 21.9632L10.426 21.9301L10.3771 21.9004L10.3351 21.8703L10.29 21.8336L10.248 21.8035L10.201 21.7704L10.1608 21.7367L10.1139 21.7036L10.0737 21.6699L10.0287 21.6333L9.98854 21.5996L9.9484 21.5659L9.90825 21.5323L9.86514 21.4921L9.82499 21.4584L9.78678 21.4213L9.74663 21.3876L9.70841 21.3504L9.67019 21.3133L9.63197 21.2761L9.59568 21.2354L9.56235 21.2012L9.52414 21.164L9.48785 21.1233L9.44963 21.0862L9.41823 21.0484L9.38194 21.0078L9.35053 20.97L9.31424 20.9294L9.28284 20.8917L9.24655 20.851L9.21708 20.8097L9.18568 20.772L9.15621 20.7308L9.12674 20.6896L9.09533 20.6519L9.06586 20.6107L9.03639 20.5694L9.00885 20.5247L8.97937 20.4835L8.9499 20.4423L8.92043 20.401L8.89777 20.3593L8.87023 20.3145L8.84565 20.2763L8.8181 20.2316L8.79545 20.1898L8.77279 20.148L8.74525 20.1033L8.7226 20.0615L8.69994 20.0198L8.67921 19.9745L8.65656 19.9327L8.63583 19.8875L8.61318 19.8457L8.59734 19.8034L8.57662 19.7581L8.56078 19.7158L8.54005 19.6705L8.52422 19.6282L8.50349 19.583L8.48765 19.5407L8.47182 19.4984L8.45791 19.4525L8.44207 19.4102L8.42816 19.3644L8.41232 19.3221L8.39842 19.2763L8.38258 19.234L8.37356 19.1911L8.35965 19.1453L8.35063 19.1025L8.34161 19.0596L8.3277 19.0138L8.31868 18.971L8.31159 18.9246L8.30257 18.8818L8.29355 18.8389L8.28646 18.7926L8.28233 18.7527L8.27524 18.7063L8.26815 18.66L8.26402 18.6201L8.26182 18.5767L8.25473 18.5303L8.25253 18.4869L8.25033 18.4435L8.24813 18.4001L8.24592 18.3567L8.24372 18.3134L8.24641 18.2729L8.24614 18.226L8.24883 18.1856L8.24662 18.1422L8.25124 18.0983L8.25393 18.0578L8.25854 18.0139L8.26123 17.9735L8.26585 17.9295L8.27046 17.8856L8.27997 17.8446L8.28266 17.8042L8.29216 17.7632L8.30167 17.7222L8.30629 17.6783L8.31579 17.6373L8.3253 17.5964L8.33969 17.5583L8.3492 17.5174L8.3587 17.4764L8.37503 17.4349L8.38453 17.3939L8.39893 17.3559L8.41332 17.3179L8.42964 17.2764L8.44404 17.2384L8.46036 17.1968L8.47476 17.1588L8.49404 17.1238L8.51036 17.0823L8.53158 17.0437L8.55086 17.0087L8.57207 16.9701L13.3372 8.30938L13.3565 8.27433L13.3777 8.23578L13.3989 8.19722L13.4231 8.16514L13.4443 8.12658L13.4685 8.09449L13.4946 8.0589L13.5187 8.02681L13.5429 7.99473L13.569 7.95913L13.5932 7.92705L13.6222 7.89792L13.6464 7.86583L13.6774 7.8332L13.7065 7.80408L13.7306 7.77199L13.7597 7.74287L13.7888 7.71374L13.8227 7.68758L13.8518 7.65845L13.8789 7.63283L13.9129 7.60667L13.9419 7.57754L13.9759 7.55138L14.0079 7.52872L14.0419 7.50256L14.0758 7.4764L14.1078 7.45374L14.1399 7.43108L14.1787 7.40788L14.2107 7.38522L14.2476 7.36553L14.2816 7.33936L14.3185 7.31967L14.3554 7.29997L14.3923 7.28028L14.4292 7.26058L14.4662 7.24088L14.508 7.22415L14.5429 7.20796L14.5799 7.18826L14.6217 7.17153L14.6615 7.1583L14.6984 7.13861L14.7383 7.12538L14.7801 7.10864L14.82 7.09541L14.8599 7.08218L14.8997 7.06896L14.9464 7.05518L14.9863 7.04196L15.0243 7.03223L15.069 7.02197L15.1089 7.00874L15.1537 6.99847L15.1984 6.9882L15.2413 6.98144L15.286 6.97117L15.3289 6.96441L15.3736 6.95415L15.4165 6.94738L15.4593 6.94062L15.507 6.93682L15.5498 6.93006L15.5976 6.92626L15.6404 6.9195L15.6881 6.9157L15.729 6.91244L15.7768 6.90864L15.8245 6.90485L15.8703 6.90455L15.9161 6.90426L15.9638 6.90046L16.0096 6.90016L16.0603 6.90283L16.1061 6.90253L16.1519 6.90224L16.2006 6.90841L16.2464 6.90812L16.2971 6.91079L16.341 6.914L16.3917 6.91666L16.4404 6.92284L16.4892 6.92901L16.5379 6.93518L16.5867 6.94135L16.6354 6.94753ZM16.6988 7.79007L16.6613 7.78628L16.6237 7.78249L16.5862 7.77871L16.5486 7.77492L16.516 7.77412L16.4785 7.77034L16.4409 7.76655L16.4063 7.76929L16.3688 7.7655L16.3342 7.76824L16.2967 7.76445L16.2621 7.76719L16.2295 7.76639L16.19 7.76614L16.1554 7.76888L16.1209 7.77162L16.0863 7.77436L16.0518 7.7771L16.0172 7.77983L15.9827 7.78257L15.9481 7.78531L15.9185 7.79104L15.882 7.79731L15.8474 7.80005L15.8109 7.80632L15.7813 7.81205L15.7448 7.81832L15.7152 7.82405L15.6787 7.83032L15.6472 7.83959L15.6176 7.84531L15.586 7.85457L15.5544 7.86384L15.5179 7.87011L15.4864 7.87937L15.4548 7.88864L15.4282 7.90089L15.3947 7.91369L15.3632 7.92295L15.3316 7.93221L15.305 7.94446L15.2715 7.95726L15.2449 7.96951L15.2114 7.98231L15.1848 7.99456L15.1562 8.01035L15.1296 8.0226L15.0961 8.0354L15.0725 8.05417L15.0459 8.06643L15.0174 8.08221L14.9888 8.098L14.9603 8.11379L14.9367 8.13256L14.9081 8.14835L14.8796 8.16414L14.856 8.18291L14.8324 8.20169L14.8038 8.21747L14.7802 8.23625L14.7566 8.25503L14.733 8.2738L14.7075 8.29611L14.6839 8.31489L14.6603 8.33366L14.6397 8.35896L14.6161 8.37774L14.5955 8.40304L14.5719 8.42181L14.5513 8.44711L14.5277 8.46589L14.5071 8.49119L14.4885 8.51295L14.4679 8.53825L14.4473 8.56355L14.4287 8.58532L14.4081 8.61062L14.3924 8.63891L14.3718 8.66421L14.3562 8.6925L14.3375 8.71426L14.3219 8.74255L14.3063 8.77084L14.2906 8.79912L14.273 8.83095L9.4465 17.5615L9.42891 17.5933L9.41327 17.6216L9.39763 17.6499L9.38199 17.6782L9.37131 17.7095L9.35567 17.7377L9.34694 17.7655L9.3313 17.7938L9.32062 17.825L9.30994 17.8563L9.30121 17.8841L9.29053 17.9153L9.27985 17.9466L9.27112 17.9744L9.26539 18.0086L9.25666 18.0364L9.25094 18.0706L9.24221 18.0984L9.23648 18.1326L9.22776 18.1604L9.22399 18.1911L9.21826 18.2254L9.21449 18.2561L9.21072 18.2868L9.20695 18.3176L9.20317 18.3483L9.20436 18.382L9.19863 18.4163L9.19486 18.447L9.198 18.4772L9.19723 18.5144L9.19542 18.5416L9.1966 18.5754L9.19779 18.6091L9.19897 18.6428L9.1952 18.6735L9.19834 18.7037L9.20448 18.7404L9.20567 18.7741L9.20881 18.8043L9.20999 18.838L9.21809 18.8712L9.21927 18.9049L9.22737 18.9381L9.23051 18.9683L9.2386 19.0014L9.24475 19.0381L9.25284 19.0713L9.25598 19.1015L9.26408 19.1347L9.27217 19.1678L9.28523 19.204L9.29332 19.2372L9.30142 19.2703L9.30952 19.3035L9.31957 19.3331L9.33262 19.3693L9.34072 19.4025L9.35572 19.4351L9.36382 19.4683L9.37883 19.5009L9.39383 19.5335L9.40193 19.5667L9.41694 19.5993L9.43195 19.6319L9.445 19.6681L9.46001 19.7007L9.47697 19.7298L9.49002 19.7659L9.50698 19.795L9.52199 19.8277L9.54195 19.8633L9.55696 19.8959L9.57392 19.925L9.59389 19.9606L9.61085 19.9897L9.63081 20.0253L9.64778 20.0544L9.66969 20.0864L9.68966 20.1221L9.70662 20.1511L9.72854 20.1832L9.75241 20.2118L9.77433 20.2438L9.79625 20.2759L9.81817 20.308L9.84009 20.3401L9.86396 20.3686L9.88588 20.4007L9.90975 20.4292L9.93167 20.4613L9.95555 20.4898L9.97942 20.5184L10.0082 20.5499L10.0321 20.5784L10.056 20.607L10.0848 20.6385L10.1087 20.667L10.1395 20.695L10.1634 20.7236L10.1872 20.7521L10.218 20.7801L10.2468 20.8116L10.2727 20.8366L10.3035 20.8646L10.3342 20.8926L10.365 20.9206L10.3909 20.9456L10.4216 20.9736L10.4524 21.0016L10.4852 21.026L10.5159 21.054L10.5487 21.0785L10.5795 21.1065L10.6122 21.1309L10.645 21.1554L10.6757 21.1834L10.7085 21.2078L10.7432 21.2287L10.7759 21.2532L10.8087 21.2777L10.8463 21.3051L10.881 21.326L10.9138 21.3505L10.9485 21.3714L10.9881 21.3953L11.0228 21.4162L11.0605 21.4437L11.0972 21.461L11.1319 21.482L11.1715 21.5059L11.2062 21.5268L11.2429 21.5442L11.2775 21.5651L11.3192 21.5855L11.3558 21.6029L11.3925 21.6202L11.4271 21.6412L11.4638 21.6585L11.5024 21.6724L11.5391 21.6898L11.5757 21.7071L11.6143 21.721L11.651 21.7384L11.6896 21.7522L11.7262 21.7696L11.7648 21.7835L11.8034 21.7973L11.842 21.8112L11.8757 21.822L11.9143 21.8359L11.9529 21.8497L11.9865 21.8606L12.0271 21.8709L12.0607 21.8817L12.1013 21.892L12.1418 21.9024L12.1755 21.9132L12.2111 21.9205L12.2517 21.9308L12.2873 21.9382L12.3229 21.9455L12.3634 21.9558L12.399 21.9631L12.4346 21.9704L12.4722 21.9742L12.5078 21.9816L12.5503 21.9883L12.5859 21.9957L12.6185 21.9965L12.6561 22.0002L12.6936 22.004L12.7292 22.0113L12.7668 22.0151L12.8043 22.0189L12.8389 22.0162L12.8765 22.02L12.914 22.0238L12.9466 22.0246L12.9861 22.0248L13.0187 22.0256L13.0582 22.0259L13.0908 22.0267L13.1254 22.0239L13.1649 22.0242L13.1995 22.0214L13.2321 22.0222L13.2686 22.0159L13.3031 22.0132L13.3357 22.014L13.3722 22.0077L13.4068 22.005L13.4414 22.0023L13.4729 21.993L13.5075 21.9903L13.542 21.9875L13.5736 21.9783L13.6081 21.9755L13.6397 21.9663L13.6762 21.96L13.7058 21.9543L13.7374 21.945L13.7689 21.9357L13.8054 21.9295L13.837 21.9202L13.8685 21.9109L13.9001 21.9017L13.9267 21.8894L13.9582 21.8802L13.9917 21.8674L14.0233 21.8581L14.0499 21.8458L14.0814 21.8366L14.11 21.8208L14.1416 21.8115L14.1701 21.7957L14.1967 21.7835L14.2253 21.7677L14.2538 21.7519L14.2804 21.7397L14.309 21.7239L14.3375 21.7081L14.3661 21.6923L14.3946 21.6765L14.4212 21.6643L14.4468 21.642L14.4734 21.6297L14.497 21.6109L14.5225 21.5886L14.5511 21.5728L14.5747 21.5541L14.5983 21.5353L14.6219 21.5165L14.6455 21.4977L14.671 21.4754L14.6946 21.4566L14.7132 21.4349L14.7388 21.4126L14.7624 21.3938L14.783 21.3685L14.8016 21.3467L14.8272 21.3244L14.8458 21.3027L14.8664 21.2774L14.887 21.2521L14.9057 21.2303L14.9263 21.205L14.9468 21.1797L14.9625 21.1514L14.9811 21.1296L14.9968 21.1013L15.0174 21.076L15.033 21.0478L15.0486 21.0195L15.0692 20.9942L15.0868 20.9623L19.9134 12.2318L19.931 12.2L19.9416 12.1687L19.9573 12.1404L19.9729 12.1121L19.9816 12.0844L19.9973 12.0561L20.008 12.0248L20.0236 11.9965L20.0343 11.9653L20.043 11.9375L20.0537 11.9062L20.0644 11.875L20.0731 11.8472L20.0838 11.8159L20.0876 11.7852L20.0982 11.7539L20.107 11.7262L20.1127 11.6919L20.1165 11.6612L20.1272 11.6299L20.1309 11.5992L20.1347 11.5685L20.1404 11.5342L20.1442 11.5035L20.148 11.4727L20.1517 11.442L20.1505 11.4083L20.1543 11.3776L20.1581 11.3468L20.1569 11.3131L20.1607 11.2824L20.1595 11.2487L20.1583 11.215L20.1571 11.1812L20.1559 11.1475L20.1528 11.1173L20.1516 11.0836L20.1504 11.0499L20.1473 11.0197L20.1461 10.986L20.143 10.9558L20.1368 10.9191L20.1337 10.8889L20.1275 10.8522L20.1244 10.822L20.1163 10.7889L20.1082 10.7557L20.1021 10.719L20.0989 10.6888L20.0908 10.6556L20.0827 10.6225L20.0746 10.5893L20.0616 10.5531L20.0535 10.52L20.0434 10.4903L20.0353 10.4572L20.0223 10.421L20.0122 10.3914L19.9992 10.3552L19.9891 10.3256L19.9761 10.2894L19.9611 10.2568L19.953 10.2236L19.938 10.191L19.923 10.1584L19.908 10.1258L19.8929 10.0931L19.8779 10.0605L19.8629 10.0279L19.8479 9.99528L19.8329 9.96265L19.813 9.92704L19.796 9.89796L19.781 9.86533L19.7591 9.83326L19.7441 9.80064L19.7221 9.76856L19.7071 9.73594L19.6852 9.70386L19.6633 9.67179L19.6463 9.6427L19.6244 9.61063L19.6025 9.57855L19.5806 9.54648L19.5587 9.5144L19.5367 9.48233L19.5178 9.45678L19.4909 9.42171L19.4671 9.39318L19.4452 9.3611L19.4213 9.33256L19.3994 9.30049L19.3755 9.27195L19.3467 9.24042L19.3228 9.21188L19.2989 9.18334L19.2701 9.15182L19.2462 9.12328L19.2204 9.09827L19.1916 9.06675L19.1627 9.03522L19.1369 9.01022L19.1061 8.98223L19.0822 8.95369L19.0514 8.92569L19.0207 8.8977L18.9948 8.8727L18.9641 8.84471L18.9333 8.81672L18.9025 8.78873L18.8697 8.76427L18.839 8.73628L18.8062 8.71182L18.7754 8.68383L18.7427 8.65938L18.71 8.63492L18.6772 8.61047L18.6445 8.58601L18.6117 8.56156L18.579 8.5371L18.5463 8.51265L18.5066 8.48874L18.4739 8.46428L18.4392 8.44337L18.4064 8.41891L18.3668 8.395L18.3321 8.37408L18.2974 8.35316L18.2577 8.32926L18.223 8.30834L18.1834 8.28443L18.1467 8.26705L18.1121 8.24613L18.0754 8.22874L18.0358 8.20484L17.9991 8.18745L17.9625 8.17007L17.9258 8.15269L17.8892 8.1353L17.8525 8.11792L17.8159 8.10054L17.7792 8.08315L17.7406 8.06931L17.704 8.05192L17.6653 8.03808L17.6287 8.02069L17.5901 8.00685L17.5515 7.993L17.5178 7.98214L17.4792 7.9683L17.4406 7.95445L17.402 7.9406L17.3664 7.93328L17.3278 7.91943L17.2873 7.90912L17.2536 7.89826L17.218 7.89094L17.1794 7.87709L17.1438 7.86977L17.1033 7.85946L17.0676 7.85214L17.032 7.84481L16.9915 7.8345L16.9559 7.82718L16.9183 7.82339L16.8827 7.81607L16.8471 7.80875L16.8096 7.80496L16.772 7.80118L16.7364 7.79385L16.6988 7.79007Z" fill="#04C5DE"/>
<path fill-rule="evenodd" clip-rule="evenodd" d="M17.8256 17.4493L10.7524 13.1203L8.49176 17.2711C7.65887 18.8003 8.56711 21.0098 10.5223 22.2064C12.4729 23.4002 14.7321 23.1293 15.565 21.6001L17.8256 17.4493Z" fill="#1C65F1"/>
<path fill-rule="evenodd" clip-rule="evenodd" d="M17.8253 17.462L15.5716 21.6052L15.5515 21.6421L15.5332 21.6757L15.5132 21.7126L15.4884 21.7466L15.4702 21.7802L15.4473 21.8109L15.4226 21.8449L15.3997 21.8756L15.3749 21.9097L15.352 21.9404L15.3291 21.9711L15.3016 21.9989L15.2769 22.033L15.2493 22.0608L15.2264 22.0915L15.1989 22.1194L15.1713 22.1472L15.1438 22.1751L15.1115 22.2001L15.084 22.2279L15.0564 22.2558L15.0261 22.2774L14.9985 22.3053L14.9663 22.3302L14.9341 22.3552L14.9037 22.3769L14.8715 22.4019L14.8411 22.4235L14.8089 22.4485L14.7739 22.4673L14.7435 22.489L14.7067 22.5111L14.6763 22.5327L14.6413 22.5515L14.6062 22.5703L14.5712 22.5891L14.5362 22.6079L14.5011 22.6267L14.4661 22.6455L14.4264 22.6614L14.3932 22.6769L14.3535 22.6928L14.3185 22.7116L14.2806 22.7242L14.241 22.7401L14.2031 22.7527L14.1652 22.7653L14.1256 22.7812L14.0877 22.7938L14.0498 22.8064L14.0073 22.8161L13.9695 22.8287L13.927 22.8385L13.8891 22.8511L13.8484 22.8574L13.8059 22.8672L13.7652 22.8735L13.7227 22.8833L13.682 22.8897L13.6395 22.8994L13.5988 22.9058L13.5581 22.9122L13.5128 22.9157L13.4721 22.9221L13.4268 22.9256L13.3861 22.932L13.3408 22.9355L13.2954 22.939L13.2566 22.9421L13.2112 22.9456L13.1677 22.9458L13.1224 22.9493L13.0789 22.9495L13.0353 22.9496L12.9872 22.947L12.9437 22.9471L12.9002 22.9473L12.852 22.9446L12.8103 22.9415L12.7621 22.9388L12.7186 22.939L12.6723 22.9329L12.626 22.9269L12.5796 22.9209L12.5314 22.9182L12.4898 22.915L12.4434 22.909L12.3943 22.8967L12.3479 22.8907L12.3016 22.8847L12.2571 22.8753L12.2107 22.8693L12.1616 22.857L12.117 22.8477L12.0679 22.8354L12.0234 22.826L11.9742 22.8138L11.9297 22.8044L11.8823 22.7888L11.8332 22.7766L11.7905 22.7638L11.7431 22.7482L11.694 22.736L11.6466 22.7204L11.5993 22.7048L11.552 22.6892L11.5064 22.6703L11.4591 22.6547L11.4136 22.6358L11.3616 22.6173L11.3161 22.5984L11.2706 22.5794L11.225 22.5605L11.1749 22.5387L11.1294 22.5197L11.081 22.4946L11.0355 22.4756L10.9918 22.4533L10.9435 22.4282L10.8933 22.4064L10.8496 22.3841L10.8031 22.3556L10.7547 22.3304L10.711 22.3081L10.6645 22.2796L10.618 22.2511L10.5697 22.226L10.5278 22.2003L10.4813 22.1718L10.4366 22.1399L10.3901 22.1114L10.3435 22.0829L10.3035 22.0539L10.2588 22.0221L10.2123 21.9935L10.1723 21.9645L10.1294 21.9293L10.0893 21.9003L10.0446 21.8685L10.0064 21.8361L9.96174 21.8042L9.92352 21.7719L9.88065 21.7366L9.84243 21.7043L9.80422 21.6719L9.766 21.6395L9.72496 21.601L9.68674 21.5686L9.65035 21.5329L9.61213 21.5005L9.57574 21.4648L9.53935 21.4291L9.50296 21.3934L9.46839 21.3543L9.43665 21.3214L9.40026 21.2857L9.36569 21.2466L9.3293 21.2109L9.29938 21.1747L9.26481 21.1356L9.2349 21.0994L9.20033 21.0603L9.17042 21.0241L9.13585 20.985L9.10776 20.9454L9.07785 20.9092L9.04976 20.8696L9.02166 20.83L8.99175 20.7938L8.96366 20.7542L8.93557 20.7147L8.9093 20.6717L8.88121 20.6321L8.85312 20.5926L8.82503 20.553L8.80342 20.5129L8.77715 20.47L8.75372 20.4332L8.72745 20.3903L8.70584 20.3502L8.68422 20.3101L8.65796 20.2672L8.63634 20.2271L8.61473 20.187L8.59494 20.1436L8.57333 20.1035L8.55354 20.0601L8.53193 20.02L8.51679 19.9794L8.497 19.936L8.48186 19.8954L8.46207 19.8519L8.44694 19.8113L8.42715 19.7679L8.41201 19.7273L8.39688 19.6867L8.38356 19.6428L8.36843 19.6022L8.35512 19.5583L8.33998 19.5177L8.32667 19.4737L8.31153 19.4331L8.30287 19.3921L8.28956 19.3481L8.2809 19.307L8.27224 19.2659L8.25893 19.222L8.25027 19.1809L8.24343 19.1364L8.23477 19.0953L8.22611 19.0543L8.21928 19.0098L8.21527 18.9716L8.20843 18.9271L8.2016 18.8827L8.19759 18.8444L8.19541 18.8028L8.18857 18.7584L8.18639 18.7168L8.1842 18.6752L8.18202 18.6336L8.17984 18.592L8.17765 18.5504L8.18012 18.5117L8.17976 18.4667L8.18223 18.428L8.18005 18.3864L8.18434 18.3443L8.18681 18.3055L8.1911 18.2634L8.19357 18.2247L8.19787 18.1826L8.20216 18.1405L8.21111 18.1012L8.21357 18.0625L8.22252 18.0232L8.23146 17.984L8.23576 17.9419L8.2447 17.9026L8.25365 17.8634L8.26725 17.827L8.27619 17.7877L8.28514 17.7485L8.30056 17.7087L8.3095 17.6695L8.3231 17.6331L8.3367 17.5967L8.35212 17.5569L8.36572 17.5205L8.38114 17.4808L8.39474 17.4444L8.41299 17.4108L8.42841 17.3711L8.44848 17.3342L8.46673 17.3006L8.4868 17.2637L10.7406 13.1204L17.8253 17.462ZM9.37188 17.806L9.35537 17.8363L9.3407 17.8633L9.32603 17.8902L9.31136 17.9172L9.30137 17.947L9.2867 17.974L9.27854 18.0004L9.26387 18.0274L9.25387 18.0572L9.24388 18.0871L9.23572 18.1135L9.22572 18.1433L9.21756 18.1698L9.20756 18.1996L9.20224 18.2323L9.19408 18.2588L9.18876 18.2914L9.1806 18.3179L9.17528 18.3506L9.16712 18.377L9.16363 18.4064L9.15831 18.4391L9.15482 18.4684L9.15133 18.4977L9.14785 18.527L9.14436 18.5563L9.14555 18.5885L9.14022 18.6212L9.13674 18.6505L9.13792 18.6827L9.13911 18.7149L9.13746 18.7408L9.13864 18.773L9.13983 18.8052L9.14102 18.8374L9.13753 18.8667L9.14523 18.8984L9.14641 18.9306L9.1476 18.9627L9.15062 18.9915L9.15181 19.0237L9.1595 19.0554L9.16069 19.0876L9.16838 19.1193L9.1714 19.1481L9.1791 19.1798L9.18496 19.2148L9.19266 19.2465L9.19568 19.2753L9.20337 19.307L9.21107 19.3386L9.22343 19.3732L9.23113 19.4048L9.23882 19.4365L9.24652 19.4682L9.25605 19.4965L9.26842 19.531L9.27611 19.5627L9.29032 19.5939L9.29801 19.6256L9.31221 19.6567L9.32642 19.6879L9.33411 19.7196L9.34831 19.7507L9.36252 19.7819L9.37489 19.8165L9.39092 19.8443L9.40329 19.8788L9.41749 19.91L9.43353 19.9378L9.44773 19.9689L9.46661 20.003L9.48081 20.0341L9.49685 20.0619L9.51573 20.096L9.53176 20.1238L9.55064 20.1578L9.56668 20.1856L9.58739 20.2163L9.60627 20.2503L9.6223 20.2781L9.64301 20.3088L9.66372 20.3394L9.68627 20.3667L9.70698 20.3974L9.72769 20.428L9.7484 20.4587L9.77095 20.486L9.79166 20.5167L9.8142 20.5439L9.83491 20.5746L9.85746 20.6019L9.88 20.6292L9.90722 20.6593L9.92976 20.6866L9.95231 20.7139L9.97953 20.7441L10.0021 20.7714L10.0311 20.7982L10.0537 20.8255L10.0762 20.8528L10.1053 20.8795L10.1325 20.9097L10.1569 20.9336L10.1859 20.9604L10.215 20.9872L10.244 21.014L10.2684 21.0379L10.2975 21.0647L10.3265 21.0915L10.3574 21.1149L10.3864 21.1417L10.4173 21.1651L10.4464 21.1919L10.4773 21.2153L10.5082 21.2387L10.5372 21.2655L10.5681 21.2889L10.6008 21.3089L10.6317 21.3324L10.6626 21.3558L10.6981 21.3821L10.7309 21.4021L10.7618 21.4255L10.7945 21.4456L10.8319 21.4685L10.8646 21.4885L10.9001 21.5148L10.9347 21.5315L10.9674 21.5515L11.0048 21.5744L11.0375 21.5945L11.0721 21.6112L11.1048 21.6312L11.144 21.6507L11.1786 21.6674L11.2131 21.6841L11.2459 21.7041L11.2804 21.7208L11.3168 21.7341L11.3514 21.7508L11.3859 21.7675L11.4223 21.7808L11.4569 21.7974L11.4932 21.8107L11.5278 21.8274L11.5642 21.8407L11.6006 21.854L11.637 21.8673L11.6687 21.8778L11.7051 21.8911L11.7414 21.9044L11.7732 21.9148L11.8114 21.9248L11.8431 21.9352L11.8813 21.9451L11.9195 21.9551L11.9512 21.9655L11.9848 21.9726L12.023 21.9825L12.0566 21.9896L12.0901 21.9967L12.1283 22.0066L12.1619 22.0137L12.1954 22.0207L12.2308 22.0244L12.2643 22.0315L12.2997 22.0352L12.3379 22.0452L12.3687 22.046L12.404 22.0497L12.4394 22.0534L12.473 22.0605L12.5083 22.0642L12.5437 22.0679L12.5763 22.0653L12.6116 22.069L12.647 22.0727L12.6777 22.0736L12.7149 22.0739L12.7457 22.0747L12.7829 22.0751L12.8136 22.0759L12.8461 22.0734L12.8833 22.0737L12.9159 22.0712L12.9466 22.072L12.9791 22.0695L13.0135 22.0636L13.046 22.061L13.0786 22.0585L13.1111 22.056L13.1436 22.0534L13.1733 22.0447L13.2059 22.0422L13.2384 22.0396L13.2681 22.0309L13.3007 22.0283L13.3304 22.0196L13.3647 22.0136L13.3926 22.0083L13.4223 21.9995L13.452 21.9907L13.4864 21.9848L13.5161 21.9761L13.5458 21.9673L13.5755 21.9585L13.6005 21.9469L13.6302 21.9381L13.6617 21.926L13.6914 21.9172L13.7165 21.9056L13.7462 21.8968L13.773 21.8818L13.8027 21.8731L13.8296 21.8581L13.8546 21.8464L13.8815 21.8314L13.9083 21.8164L13.9333 21.8048L13.9602 21.7898L13.9871 21.7748L14.0139 21.7598L14.0408 21.7448L14.0658 21.7332L14.0898 21.7119L14.1148 21.7003L14.137 21.6824L14.161 21.6612L14.1879 21.6462L14.2101 21.6283L14.2323 21.6105L14.2545 21.5926L14.2766 21.5747L14.3007 21.5535L14.3228 21.5356L14.3404 21.5149L14.3644 21.4937L14.3866 21.4758L14.4059 21.4517L14.4234 21.431L14.4474 21.4098L14.4649 21.389L14.4843 21.3649L14.5036 21.3408L14.5211 21.3201L14.5405 21.296L14.5598 21.2719L14.5745 21.245L14.592 21.2242L14.6067 21.1973L14.626 21.1732L14.6407 21.1462L14.6554 21.1192L14.6747 21.0951L14.6912 21.0648L16.5726 17.607L11.2532 14.3482L9.37188 17.806Z" fill="#0950D5"/>
<g opacity="0.5">
<path fill-rule="evenodd" clip-rule="evenodd" d="M8.24566 5.62876C8.62229 5.62876 8.92761 5.3304 8.92761 4.96236C8.92761 4.59432 8.62229 4.29596 8.24566 4.29596C7.86904 4.29596 7.56372 4.59432 7.56372 4.96236C7.56372 5.3304 7.86904 5.62876 8.24566 5.62876Z" fill="white"/>
<path d="M6.63245 5.79143C7.287 5.82742 7.45063 6.57877 6.71427 7.26347C5.72336 8.2041 4.98245 9.37888 4.46882 10.6141C4.46882 10.6141 4.30973 10.9042 4.04609 10.9847C3.52791 11.1442 3.00064 10.6168 3.27791 9.92895C3.91882 8.37516 4.887 6.92134 6.20973 5.92073C6.33245 5.83542 6.40518 5.78965 6.63245 5.79143Z" fill="white"/>
</g>
</svg>
