<svg width="31" height="35" viewBox="0 0 31 35" fill="none" xmlns="http://www.w3.org/2000/svg">
<path fill-rule="evenodd" clip-rule="evenodd" d="M15.4978 31.9201C23.5311 31.9201 30.0433 25.4079 30.0433 17.3746C30.0433 9.34139 23.5311 2.82916 15.4978 2.82916C7.46462 2.82916 0.952393 9.34139 0.952393 17.3746C0.952393 25.4079 7.46462 31.9201 15.4978 31.9201Z" fill="#C9DAF6"/>
<path fill-rule="evenodd" clip-rule="evenodd" d="M14.5889 31.011C22.6221 31.011 29.1344 24.4988 29.1344 16.4656C29.1344 8.43233 22.6221 1.9201 14.5889 1.9201C6.55568 1.9201 0.043457 8.43233 0.043457 16.4656C0.043457 24.4988 6.55568 31.011 14.5889 31.011Z" fill="black"/>
<path fill-rule="evenodd" clip-rule="evenodd" d="M14.5888 30.1024C22.1199 30.1024 28.2252 23.9971 28.2252 16.466C28.2252 8.93481 22.1199 2.82959 14.5888 2.82959C7.05761 2.82959 0.952393 8.93481 0.952393 16.466C0.952393 23.9971 7.05761 30.1024 14.5888 30.1024Z" fill="#21334A"/>
<path fill-rule="evenodd" clip-rule="evenodd" d="M19.9918 11.4556C16.7963 8.26058 11.6145 8.26058 8.41906 11.4556C5.22815 14.6488 5.22815 19.8333 8.41906 23.0265C11.6145 26.2219 16.7963 26.2219 19.9918 23.0265L14.2054 17.241L19.9918 11.4556ZM13.0691 13.6305C13.6327 13.6305 14.0918 14.0887 14.0918 14.6532C14.0918 15.2178 13.6327 15.676 13.0691 15.676C12.5055 15.676 12.0464 15.2178 12.0464 14.6532C12.0464 14.0887 12.5055 13.6305 13.0691 13.6305Z" fill="#FDD60F"/>
<path fill-rule="evenodd" clip-rule="evenodd" d="M20.1531 10.9787C18.5579 9.46262 16.4597 8.64238 14.3101 8.60638C12.8082 8.5977 11.3094 8.96507 10.0019 9.69404C5.82935 12.0217 4.39521 18.0585 6.9919 21.9929C9.63229 25.9928 15.5813 26.9478 19.3119 24.2071C19.3377 24.1881 19.3639 24.1688 19.3906 24.1492C19.9481 23.7394 20.6738 23.2059 20.3456 22.7427L14.8485 17.2411L20.3125 11.7771C20.5452 11.5187 20.3967 11.2108 20.1531 10.9787ZM6.79739 15.0392C7.72434 11.9073 10.8231 9.57354 14.1143 9.51569C16.0473 9.50476 17.9186 10.1984 19.3389 11.4651L13.8842 16.9197C13.7296 17.0936 13.7171 17.3376 13.8508 17.5253L19.3055 23.0436C17.7444 24.4054 15.6812 25.0929 13.648 24.947C8.8766 24.6079 5.50885 19.4004 6.79739 15.0392Z" fill="#E2AD00"/>
<path fill-rule="evenodd" clip-rule="evenodd" d="M19.4055 18.3668C20.1486 18.3668 20.751 17.7644 20.751 17.0214C20.751 16.2783 20.1486 15.6759 19.4055 15.6759C18.6624 15.6759 18.0601 16.2783 18.0601 17.0214C18.0601 17.7644 18.6624 18.3668 19.4055 18.3668Z" fill="white"/>
<path fill-rule="evenodd" clip-rule="evenodd" d="M24.2263 18.3668C24.9694 18.3668 25.5718 17.7644 25.5718 17.0214C25.5718 16.2783 24.9694 15.6759 24.2263 15.6759C23.4832 15.6759 22.8809 16.2783 22.8809 17.0214C22.8809 17.7644 23.4832 18.3668 24.2263 18.3668Z" fill="white"/>
<g opacity="0.5">
<path fill-rule="evenodd" clip-rule="evenodd" d="M8.15875 6.98676C8.53538 6.98676 8.84069 6.68154 8.84069 6.30502C8.84069 5.92851 8.53538 5.62329 8.15875 5.62329C7.78212 5.62329 7.47681 5.92851 7.47681 6.30502C7.47681 6.68154 7.78212 6.98676 8.15875 6.98676Z" fill="white"/>
<path d="M6.54551 7.15325C7.20005 7.19007 7.36369 7.9587 6.62733 8.65916C5.63642 9.62143 4.89551 10.8242 4.38187 12.0864C4.38187 12.0864 4.22278 12.3837 3.96369 12.4655C3.44097 12.6296 2.91369 12.0914 3.19097 11.386C3.83187 9.79552 4.80005 8.30916 6.12278 7.28552C6.24551 7.19825 6.31824 7.15143 6.54551 7.15325Z" fill="white"/>
</g>
</svg>
