<svg width="31" height="31" viewBox="0 0 31 31" fill="none" xmlns="http://www.w3.org/2000/svg">
<path fill-rule="evenodd" clip-rule="evenodd" d="M15.5413 30.2959C23.5745 30.2959 30.0868 23.7836 30.0868 15.7504C30.0868 7.71718 23.5745 1.20496 15.5413 1.20496C7.50807 1.20496 0.99585 7.71718 0.99585 15.7504C0.99585 23.7836 7.50807 30.2959 15.5413 30.2959Z" fill="#C0D6F3"/>
<path fill-rule="evenodd" clip-rule="evenodd" d="M14.6324 29.3868C22.6656 29.3868 29.1778 22.8746 29.1778 14.8414C29.1778 6.80812 22.6656 0.295898 14.6324 0.295898C6.59914 0.295898 0.0869141 6.80812 0.0869141 14.8414C0.0869141 22.8746 6.59914 29.3868 14.6324 29.3868Z" fill="#033283"/>
<path fill-rule="evenodd" clip-rule="evenodd" d="M14.632 28.4782C22.1632 28.4782 28.2684 22.3729 28.2684 14.8418C28.2684 7.3106 22.1632 1.20538 14.632 1.20538C7.10082 1.20538 0.995605 7.3106 0.995605 14.8418C0.995605 22.3729 7.10082 28.4782 14.632 28.4782Z" fill="#0751D3"/>
<path fill-rule="evenodd" clip-rule="evenodd" d="M8.95757 4.97886C8.95757 4.97886 5.35564 6.34776 9.9752 13.6607L10.591 13.1487C10.591 13.1487 13.2575 6.74854 8.95757 4.97886Z" fill="#FFBF10"/>
<path fill-rule="evenodd" clip-rule="evenodd" d="M9.35065 4.95423C9.35065 4.95423 8.25951 5.36887 8.16583 7.03342C8.12903 7.69018 8.61938 6.22148 9.56317 6.24084C10.3389 6.25598 11.6524 7.94458 11.2478 6.89512C10.9322 6.08343 10.3492 5.37857 9.35065 4.95423Z" fill="#272322"/>
<path fill-rule="evenodd" clip-rule="evenodd" d="M23.666 7.21085C23.666 7.21085 25.0026 11.2252 17.7838 13.089L17.724 12.1877C17.724 12.1877 20.0043 5.05056 23.666 7.21085Z" fill="#FFBF10"/>
<path fill-rule="evenodd" clip-rule="evenodd" d="M23.7084 7.07806C23.7084 7.07806 24.1359 8.36946 23.1589 9.79505C22.7733 10.3574 23.3792 8.74206 22.7741 7.93013C22.2773 7.26217 20.4011 7.4733 21.3085 6.9811C22.0119 6.60266 22.8169 6.54498 23.7084 7.07806Z" fill="#272322"/>
<path fill-rule="evenodd" clip-rule="evenodd" d="M14.4828 10.1316C18.5267 10.1316 22.6052 14.2101 22.6052 18.2539C22.6052 22.2976 18.5267 24.3875 14.4828 24.3875C10.4388 24.3875 6.3606 22.2976 6.3606 18.2539C6.3606 14.2101 10.4388 10.1316 14.4828 10.1316Z" fill="#FFBF10"/>
<path fill-rule="evenodd" clip-rule="evenodd" d="M21.3873 22.2483C25.8321 17.6621 20.5313 9.80476 14.5332 9.73416C14.4829 9.73394 14.4325 9.73411 14.3821 9.73471C9.81512 9.82272 5.55144 14.3168 5.99127 18.8481C6.62985 25.4269 17.0361 26.738 21.3873 22.2483ZM7.69979 21.1656C4.65703 17.054 9.19645 10.5913 14.4385 10.5295C18.9841 10.51 23.1732 15.3534 22.0379 19.5752C21.5844 21.2619 20.1621 22.5057 18.5903 23.1837C15.7052 24.4285 10.2341 24.5901 7.69979 21.1656Z" fill="#CD9404"/>
<path d="M14.4935 18.1503C14.6398 18.1654 14.6865 18.3435 14.7779 18.4906C14.9912 18.8323 15.428 19.0558 15.8485 18.9075C16.0923 18.8201 16.3991 18.59 16.3991 18.59C16.6043 18.4624 16.972 18.7062 16.456 19.0477C16.0293 19.3301 15.4768 19.4946 15.0014 19.2508C14.6702 19.0822 14.4224 18.7714 14.2903 18.4258C14.2903 18.4258 14.2578 18.1406 14.4935 18.1503Z" fill="#272322"/>
<path d="M14.4904 18.1499C14.9901 18.1923 14.2405 19.4214 13.373 19.3727C12.985 19.3503 12.6295 19.1512 12.3268 18.9217C12.3268 18.9217 12.2232 18.814 12.2536 18.7047C12.3634 18.3108 13.0947 19.1532 13.7021 18.9217C14.0495 18.7876 14.3014 18.2567 14.3014 18.2567C14.34 18.1883 14.3827 18.1476 14.4904 18.1499Z" fill="#272322"/>
<path fill-rule="evenodd" clip-rule="evenodd" d="M13.6668 17.1339H15.292C15.292 17.1339 16.0985 17.0805 15.6983 17.9466L14.4794 18.3529L13.2605 17.9466C13.2605 17.9466 12.7973 17.1884 13.6668 17.1339Z" fill="#272322"/>
<path fill-rule="evenodd" clip-rule="evenodd" d="M18.0618 16.8614C18.9824 16.8614 19.7287 16.1151 19.7287 15.1945C19.7287 14.274 18.9824 13.5277 18.0618 13.5277C17.1413 13.5277 16.395 14.274 16.395 15.1945C16.395 16.1151 17.1413 16.8614 18.0618 16.8614Z" fill="#272322"/>
<path fill-rule="evenodd" clip-rule="evenodd" d="M10.9034 16.8614C11.824 16.8614 12.5702 16.1151 12.5702 15.1945C12.5702 14.274 11.824 13.5277 10.9034 13.5277C9.98284 13.5277 9.23657 14.274 9.23657 15.1945C9.23657 16.1151 9.98284 16.8614 10.9034 16.8614Z" fill="#272322"/>
<path fill-rule="evenodd" clip-rule="evenodd" d="M11.3016 15.2872C11.5724 15.2872 11.7919 15.0676 11.7919 14.7968C11.7919 14.526 11.5724 14.3065 11.3016 14.3065C11.0308 14.3065 10.8113 14.526 10.8113 14.7968C10.8113 15.0676 11.0308 15.2872 11.3016 15.2872Z" fill="white"/>
<path fill-rule="evenodd" clip-rule="evenodd" d="M17.5614 15.2872C17.8322 15.2872 18.0517 15.0676 18.0517 14.7968C18.0517 14.526 17.8322 14.3065 17.5614 14.3065C17.2906 14.3065 17.071 14.526 17.071 14.7968C17.071 15.0676 17.2906 15.2872 17.5614 15.2872Z" fill="white"/>
<path fill-rule="evenodd" clip-rule="evenodd" d="M9.05351 19.1714C9.68753 19.1714 10.2015 18.6574 10.2015 18.0234C10.2015 17.3893 9.68753 16.8754 9.05351 16.8754C8.41949 16.8754 7.90552 17.3893 7.90552 18.0234C7.90552 18.6574 8.41949 19.1714 9.05351 19.1714Z" fill="#FF3F10"/>
<path fill-rule="evenodd" clip-rule="evenodd" d="M20.0975 19.1714C20.7315 19.1714 21.2455 18.6574 21.2455 18.0234C21.2455 17.3893 20.7315 16.8754 20.0975 16.8754C19.4634 16.8754 18.9495 17.3893 18.9495 18.0234C18.9495 18.6574 19.4634 19.1714 20.0975 19.1714Z" fill="#FF3F10"/>
<g opacity="0.5">
<path fill-rule="evenodd" clip-rule="evenodd" d="M8.20221 5.36249C8.57884 5.36249 8.88415 5.05727 8.88415 4.68076C8.88415 4.30425 8.57884 3.99902 8.20221 3.99902C7.82558 3.99902 7.52026 4.30425 7.52026 4.68076C7.52026 5.05727 7.82558 5.36249 8.20221 5.36249Z" fill="white"/>
<path d="M6.58896 5.52898C7.24351 5.5658 7.40714 6.33444 6.67078 7.03489C5.67987 7.99716 4.93897 9.19989 4.42533 10.4622C4.42533 10.4622 4.26624 10.7594 4.00715 10.8412C3.48442 11.0053 2.95715 10.4672 3.23442 9.7617C3.87533 8.17125 4.84351 6.68489 6.16624 5.66125C6.28896 5.57398 6.36169 5.52716 6.58896 5.52898Z" fill="white"/>
</g>
</svg>
