<svg width="31" height="31" viewBox="0 0 31 31" fill="none" xmlns="http://www.w3.org/2000/svg">
<path fill-rule="evenodd" clip-rule="evenodd" d="M15.5196 30.2959C23.5528 30.2959 30.065 23.7836 30.065 15.7504C30.065 7.71718 23.5528 1.20496 15.5196 1.20496C7.48634 1.20496 0.974121 7.71718 0.974121 15.7504C0.974121 23.7836 7.48634 30.2959 15.5196 30.2959Z" fill="#D7FBFB"/>
<path fill-rule="evenodd" clip-rule="evenodd" d="M14.6106 29.3868C22.6439 29.3868 29.1561 22.8746 29.1561 14.8414C29.1561 6.80812 22.6439 0.295898 14.6106 0.295898C6.57741 0.295898 0.0651855 6.80812 0.0651855 14.8414C0.0651855 22.8746 6.57741 29.3868 14.6106 29.3868Z" fill="#0698B6"/>
<path fill-rule="evenodd" clip-rule="evenodd" d="M14.6103 28.4782C22.1414 28.4782 28.2467 22.3729 28.2467 14.8418C28.2467 7.3106 22.1414 1.20538 14.6103 1.20538C7.0791 1.20538 0.973877 7.3106 0.973877 14.8418C0.973877 22.3729 7.0791 28.4782 14.6103 28.4782Z" fill="#10D1FF"/>
<path fill-rule="evenodd" clip-rule="evenodd" d="M14.6107 23.4781C19.3804 23.4781 23.2471 19.6115 23.2471 14.8417C23.2471 10.072 19.3804 6.20538 14.6107 6.20538C9.84099 6.20538 5.97437 10.072 5.97437 14.8417C5.97437 19.6115 9.84099 23.4781 14.6107 23.4781Z" fill="white"/>
<path fill-rule="evenodd" clip-rule="evenodd" d="M14.6107 6.20538C19.3789 6.20538 23.2471 10.0754 23.2471 14.8417C23.2471 19.6099 5.97437 19.6099 5.97437 14.8417C5.97437 10.0754 9.84254 6.20538 14.6107 6.20538Z" fill="black"/>
<path fill-rule="evenodd" clip-rule="evenodd" d="M14.6107 6.20538C19.3789 6.20538 22.5562 10.0758 23.2471 13.9326C24.088 18.624 5.24712 18.6431 5.97439 13.9326C6.56984 10.0777 9.84257 6.20538 14.6107 6.20538Z" fill="#ED462F"/>
<path fill-rule="evenodd" clip-rule="evenodd" d="M14.6699 5.75085C18.7108 5.7904 22.538 8.76812 23.4698 12.7899C24.4335 16.9549 22.0198 21.6327 18.0471 23.2599C13.4153 25.1554 7.40168 22.4917 5.89713 17.4368C4.32441 12.1513 8.42895 5.88676 14.4335 5.75267C14.5153 5.75131 14.5926 5.75085 14.6699 5.75085ZM14.5562 6.6599C10.9153 6.69535 7.47444 9.37717 6.63807 12.9944C5.77444 16.7381 7.94262 20.9553 11.5199 22.419C15.7017 24.1281 21.1108 21.6917 22.4562 17.1772C23.8608 12.4626 20.2426 6.8499 14.8744 6.66399C14.7699 6.66126 14.6653 6.6599 14.5562 6.6599Z" fill="black"/>
<path fill-rule="evenodd" clip-rule="evenodd" d="M14.6107 19.3872C15.6148 19.3872 16.4288 18.5732 16.4288 17.569C16.4288 16.5649 15.6148 15.7509 14.6107 15.7509C13.6065 15.7509 12.7925 16.5649 12.7925 17.569C12.7925 18.5732 13.6065 19.3872 14.6107 19.3872Z" fill="white" stroke="black" stroke-width="2"/>
<g opacity="0.5">
<path fill-rule="evenodd" clip-rule="evenodd" d="M8.18048 5.36249C8.55711 5.36249 8.86242 5.05727 8.86242 4.68076C8.86242 4.30425 8.55711 3.99902 8.18048 3.99902C7.80385 3.99902 7.49854 4.30425 7.49854 4.68076C7.49854 5.05727 7.80385 5.36249 8.18048 5.36249Z" fill="white"/>
<path d="M6.56724 5.52898C7.22178 5.5658 7.38542 6.33444 6.64905 7.03489C5.65815 7.99716 4.91724 9.19989 4.4036 10.4622C4.4036 10.4622 4.24451 10.7594 3.98542 10.8412C3.46269 11.0053 2.93542 10.4672 3.21269 9.7617C3.8536 8.17125 4.82178 6.68489 6.14451 5.66125C6.26724 5.57398 6.33996 5.52716 6.56724 5.52898Z" fill="white"/>
</g>
</svg>
