<svg width="31" height="31" viewBox="0 0 31 31" fill="none" xmlns="http://www.w3.org/2000/svg">
<path fill-rule="evenodd" clip-rule="evenodd" d="M15.4761 30.8264C23.5094 30.8264 30.0216 24.3142 30.0216 16.2809C30.0216 8.2477 23.5094 1.73547 15.4761 1.73547C7.44289 1.73547 0.930664 8.2477 0.930664 16.2809C0.930664 24.3142 7.44289 30.8264 15.4761 30.8264Z" fill="#C8E7F2"/>
<path fill-rule="evenodd" clip-rule="evenodd" d="M14.5672 29.9173C22.6004 29.9173 29.1126 23.4051 29.1126 15.3719C29.1126 7.33864 22.6004 0.826416 14.5672 0.826416C6.53395 0.826416 0.0217285 7.33864 0.0217285 15.3719C0.0217285 23.4051 6.53395 29.9173 14.5672 29.9173Z" fill="#112654"/>
<path fill-rule="evenodd" clip-rule="evenodd" d="M14.5671 29.0087C22.0982 29.0087 28.2034 22.9035 28.2034 15.3723C28.2034 7.84112 22.0982 1.7359 14.5671 1.7359C7.03588 1.7359 0.930664 7.84112 0.930664 15.3723C0.930664 22.9035 7.03588 29.0087 14.5671 29.0087Z" fill="#214698"/>
<rect x="6.3833" y="6.75958" width="7.27278" height="7.27278" fill="#4F89C8"/>
<path fill-rule="evenodd" clip-rule="evenodd" d="M13.6566 14.0328H6.3833V6.75958H13.6566V14.0328ZM7.29254 7.66879V13.1237H12.7475V7.66879H7.29254Z" fill="white"/>
<path fill-rule="evenodd" clip-rule="evenodd" d="M22.7474 13.9819L19.1108 6.70862L15.4741 13.9819H22.7474Z" fill="#4F89C8"/>
<path fill-rule="evenodd" clip-rule="evenodd" d="M22.7474 13.9819H15.4741L19.1108 6.70862L22.7474 13.9819ZM16.946 13.0728H21.2754L19.1107 8.74349L16.946 13.0728Z" fill="white"/>
<path fill-rule="evenodd" clip-rule="evenodd" d="M7.77282 17.5064L10.0227 19.7562L12.2726 17.5064L12.9154 18.1492L10.6655 20.3991L12.9154 22.6489L12.2726 23.2918L10.0227 21.0419L7.77282 23.2918L7.13 22.6489L9.37988 20.3991L7.13 18.1492L7.77282 17.5064Z" fill="white"/>
<path fill-rule="evenodd" clip-rule="evenodd" d="M19.1132 24.0341C21.1215 24.0341 22.7495 22.406 22.7495 20.3977C22.7495 18.3894 21.1215 16.7614 19.1132 16.7614C17.1049 16.7614 15.4768 18.3894 15.4768 20.3977C15.4768 22.406 17.1049 24.0341 19.1132 24.0341Z" fill="#528ED0"/>
<path fill-rule="evenodd" clip-rule="evenodd" d="M19.1586 16.7614H19.2086L19.2541 16.7659H19.2995L19.345 16.7704H19.395L19.4404 16.775L19.4859 16.7795L19.5313 16.7841L19.5768 16.7886L19.6223 16.7977L19.6677 16.8023L19.7132 16.8114L19.7541 16.8159L19.7995 16.825L19.845 16.8341L19.8904 16.8432L19.9359 16.8523L19.9768 16.8659L20.0223 16.875L20.0632 16.8886L20.1086 16.8977L20.1495 16.9114L20.195 16.925L20.2359 16.9386L20.2813 16.9523L20.3223 16.9659L20.3632 16.9841L20.4041 16.9977L20.445 17.0159L20.4859 17.0295L20.5268 17.0477L20.5677 17.0659L20.6086 17.0841L20.6495 17.1023L20.6904 17.1204L20.7268 17.1386L20.7677 17.1614L20.8086 17.1795L20.845 17.2023L20.8859 17.2204L20.9223 17.2432L20.9586 17.2659L20.9995 17.2886L21.0359 17.3114L21.0723 17.3341L21.1086 17.3568L21.145 17.3841L21.1813 17.4068L21.2177 17.4341L21.2541 17.4568L21.2904 17.4841L21.3223 17.5114L21.3586 17.5386L21.3904 17.5659L21.4268 17.5932L21.4586 17.6204L21.4904 17.6477L21.5268 17.6795L21.5586 17.7068L21.5904 17.7341L21.6223 17.7659L21.6541 17.7977L21.6859 17.825L21.7132 17.8568L21.745 17.8886L21.7768 17.9204L21.8041 17.9523L21.8359 17.9841L21.8632 18.0204L21.8904 18.0523L21.9177 18.0841L21.945 18.1204L21.9723 18.1523L21.9995 18.1886L22.0268 18.2204L22.0541 18.2568L22.0768 18.2932L22.1041 18.3295L22.1268 18.3659L22.1541 18.4023L22.1768 18.4386L22.1995 18.475L22.2223 18.5114L22.245 18.5523L22.2677 18.5886L22.2904 18.625L22.3086 18.6659L22.3313 18.7023L22.3495 18.7432L22.3723 18.7841L22.3904 18.8204L22.4086 18.8614L22.4268 18.9023L22.445 18.9432L22.4632 18.9841L22.4813 19.025L22.495 19.0659L22.5132 19.1068L22.5268 19.1477L22.545 19.1886L22.5586 19.2295L22.5723 19.275L22.5859 19.3159L22.5995 19.3613L22.6132 19.4023L22.6223 19.4477L22.6359 19.4886L22.645 19.5341L22.6586 19.575L22.6677 19.6204L22.6768 19.6659L22.6859 19.7113L22.695 19.7568L22.6995 19.7977L22.7086 19.8432L22.7132 19.8886L22.7223 19.9341L22.7268 19.9795L22.7313 20.025L22.7359 20.0704L22.7404 20.1159V20.1659L22.745 20.2113V20.2568L22.7495 20.3023V20.3523V20.3977V20.4432V20.4932L22.745 20.5386V20.5841L22.7404 20.6295V20.6795L22.7359 20.725L22.7313 20.7704L22.7268 20.8159L22.7223 20.8613L22.7132 20.9068L22.7086 20.9523L22.6995 20.9977L22.695 21.0386L22.6859 21.0841L22.6768 21.1295L22.6677 21.175L22.6586 21.2204L22.645 21.2613L22.6359 21.3068L22.6223 21.3477L22.6132 21.3932L22.5995 21.4341L22.5859 21.4795L22.5723 21.5204L22.5586 21.5659L22.545 21.6068L22.5268 21.6477L22.5132 21.6886L22.495 21.7295L22.4813 21.7704L22.4632 21.8113L22.445 21.8523L22.4268 21.8932L22.4086 21.9341L22.3904 21.975L22.3723 22.0113L22.3495 22.0523L22.3313 22.0932L22.3086 22.1295L22.2904 22.1704L22.2677 22.2068L22.245 22.2432L22.2223 22.2841L22.1995 22.3204L22.1768 22.3568L22.1541 22.3932L22.1268 22.4295L22.1041 22.4659L22.0768 22.5023L22.0541 22.5386L22.0268 22.575L21.9995 22.6068L21.9723 22.6432L21.945 22.675L21.9177 22.7113L21.8904 22.7432L21.8632 22.775L21.8359 22.8113L21.8041 22.8432L21.7768 22.875L21.745 22.9068L21.7132 22.9386L21.6859 22.9704L21.6541 22.9977L21.6223 23.0295L21.5904 23.0613L21.5586 23.0886L21.5268 23.1204L21.4904 23.1477L21.4586 23.175L21.4268 23.2023L21.3904 23.2295L21.3586 23.2568L21.3223 23.2841L21.2904 23.3113L21.2541 23.3386L21.2177 23.3613L21.1813 23.3886L21.145 23.4113L21.1086 23.4386L21.0723 23.4613L21.0359 23.4841L20.9995 23.5068L20.9586 23.5295L20.9223 23.5523L20.8859 23.575L20.845 23.5932L20.8086 23.6159L20.7677 23.6341L20.7268 23.6568L20.6904 23.675L20.6495 23.6932L20.6086 23.7113L20.5677 23.7295L20.5268 23.7477L20.4859 23.7659L20.445 23.7795L20.4041 23.7977L20.3632 23.8113L20.3223 23.8295L20.2813 23.8432L20.2359 23.8568L20.195 23.8704L20.1495 23.8841L20.1086 23.8977L20.0632 23.9068L20.0223 23.9204L19.9768 23.9295L19.9359 23.9432L19.8904 23.9523L19.845 23.9613L19.7995 23.9704L19.7541 23.9795L19.7132 23.9841L19.6677 23.9932L19.6223 23.9977L19.5768 24.0068L19.5313 24.0113L19.4859 24.0159L19.4404 24.0204L19.395 24.025H19.345L19.2995 24.0295H19.2541L19.2086 24.0341H19.1586H19.1132H19.0677H19.0177L18.9723 24.0295H18.9268L18.8813 24.025H18.8313L18.7859 24.0204L18.7404 24.0159L18.695 24.0113L18.6495 24.0068L18.6041 23.9977L18.5586 23.9932L18.5132 23.9841L18.4723 23.9795L18.4268 23.9704L18.3813 23.9613L18.3359 23.9523L18.2904 23.9432L18.2495 23.9295L18.2041 23.9204L18.1632 23.9068L18.1177 23.8977L18.0768 23.8841L18.0313 23.8704L17.9904 23.8568L17.945 23.8432L17.9041 23.8295L17.8632 23.8113L17.8223 23.7977L17.7813 23.7795L17.7404 23.7659L17.6995 23.7477L17.6586 23.7295L17.6177 23.7113L17.5768 23.6932L17.5359 23.675L17.4995 23.6568L17.4586 23.6341L17.4177 23.6159L17.3814 23.5932L17.3404 23.575L17.3041 23.5523L17.2677 23.5295L17.2268 23.5068L17.1904 23.4841L17.1541 23.4613L17.1177 23.4386L17.0814 23.4113L17.045 23.3886L17.0086 23.3613L16.9723 23.3386L16.9359 23.3113L16.9041 23.2841L16.8677 23.2568L16.8359 23.2295L16.7995 23.2023L16.7677 23.175L16.7359 23.1477L16.6995 23.1204L16.6677 23.0886L16.6359 23.0613L16.6041 23.0295L16.5723 22.9977L16.5404 22.9704L16.5132 22.9386L16.4814 22.9068L16.4495 22.875L16.4223 22.8432L16.395 22.8113L16.3632 22.775L16.3359 22.7432L16.3086 22.7113L16.2814 22.675L16.2541 22.6432L16.2268 22.6068L16.1995 22.575L16.1723 22.5386L16.1495 22.5023L16.1223 22.4659L16.0995 22.4295L16.0723 22.3932L16.0495 22.3568L16.0268 22.3204L16.0041 22.2841L15.9814 22.2432L15.9586 22.2068L15.9359 22.1704L15.9177 22.1295L15.895 22.0932L15.8768 22.0523L15.8541 22.0113L15.8359 21.975L15.8177 21.9341L15.7995 21.8932L15.7814 21.8523L15.7632 21.8113L15.745 21.7704L15.7314 21.7295L15.7132 21.6886L15.6995 21.6477L15.6814 21.6068L15.6677 21.5659L15.6541 21.5204L15.6404 21.4795L15.6268 21.4341L15.6132 21.3932L15.6041 21.3477L15.5904 21.3068L15.5814 21.2613L15.5677 21.2204L15.5586 21.175L15.5495 21.1295L15.5404 21.0841L15.5314 21.0386L15.5268 20.9977L15.5177 20.9523L15.5132 20.9068L15.5041 20.8613L15.4995 20.8159L15.495 20.7704L15.4904 20.725L15.4859 20.6795V20.6295L15.4814 20.5841V20.5386L15.4768 20.4932V20.4432V20.3977V20.3523V20.3023L15.4814 20.2568V20.2113L15.4859 20.1659V20.1159L15.4904 20.0704L15.495 20.025L15.4995 19.9795L15.5041 19.9341L15.5132 19.8886L15.5177 19.8432L15.5268 19.7977L15.5314 19.7568L15.5404 19.7113L15.5495 19.6659L15.5586 19.6204L15.5677 19.575L15.5814 19.5341L15.5904 19.4886L15.6041 19.4477L15.6132 19.4023L15.6268 19.3613L15.6404 19.3159L15.6541 19.275L15.6677 19.2295L15.6814 19.1886L15.6995 19.1477L15.7132 19.1068L15.7314 19.0659L15.745 19.025L15.7632 18.9841L15.7814 18.9432L15.7995 18.9023L15.8177 18.8614L15.8359 18.8204L15.8541 18.7841L15.8768 18.7432L15.895 18.7023L15.9177 18.6659L15.9359 18.625L15.9586 18.5886L15.9814 18.5523L16.0041 18.5114L16.0268 18.475L16.0495 18.4386L16.0723 18.4023L16.0995 18.3659L16.1223 18.3295L16.1495 18.2932L16.1723 18.2568L16.1995 18.2204L16.2268 18.1886L16.2541 18.1523L16.2814 18.1204L16.3086 18.0841L16.3359 18.0523L16.3632 18.0204L16.395 17.9841L16.4223 17.9523L16.4495 17.9204L16.4814 17.8886L16.5132 17.8568L16.5404 17.825L16.5723 17.7977L16.6041 17.7659L16.6359 17.7341L16.6677 17.7068L16.6995 17.6795L16.7359 17.6477L16.7677 17.6204L16.7995 17.5932L16.8359 17.5659L16.8677 17.5386L16.9041 17.5114L16.9359 17.4841L16.9723 17.4568L17.0086 17.4341L17.045 17.4068L17.0814 17.3841L17.1177 17.3568L17.1541 17.3341L17.1904 17.3114L17.2268 17.2886L17.2677 17.2659L17.3041 17.2432L17.3404 17.2204L17.3814 17.2023L17.4177 17.1795L17.4586 17.1614L17.4995 17.1386L17.5359 17.1204L17.5768 17.1023L17.6177 17.0841L17.6586 17.0659L17.6995 17.0477L17.7404 17.0295L17.7813 17.0159L17.8223 16.9977L17.8632 16.9841L17.9041 16.9659L17.945 16.9523L17.9904 16.9386L18.0313 16.925L18.0768 16.9114L18.1177 16.8977L18.1632 16.8886L18.2041 16.875L18.2495 16.8659L18.2904 16.8523L18.3359 16.8432L18.3813 16.8341L18.4268 16.825L18.4723 16.8159L18.5132 16.8114L18.5586 16.8023L18.6041 16.7977L18.6495 16.7886L18.695 16.7841L18.7404 16.7795L18.7859 16.775L18.8313 16.7704H18.8813L18.9268 16.7659H18.9723L19.0177 16.7614H19.0677H19.1132H19.1586ZM19.0767 17.6704H19.0403H19.0085L18.9721 17.6749H18.9357L18.9039 17.6795H18.8676L18.8312 17.684L18.7994 17.6886L18.763 17.6931L18.7312 17.6977L18.6994 17.7022L18.663 17.7067L18.6312 17.7113L18.5948 17.7204L18.563 17.7249L18.5312 17.734L18.4948 17.7386L18.463 17.7477L18.4312 17.7567L18.3994 17.7658L18.3676 17.7749L18.3357 17.784L18.3039 17.7931L18.2721 17.8022L18.2403 17.8158L18.2085 17.8249L18.1767 17.834L18.1448 17.8477L18.113 17.8613L18.0812 17.8704L18.0539 17.884L18.0221 17.8977L17.9903 17.9113L17.963 17.9249L17.9312 17.9386L17.9039 17.9522L17.8721 17.9704L17.8448 17.984L17.813 17.9977L17.7857 18.0158L17.7585 18.0295L17.7267 18.0477L17.6994 18.0658L17.6721 18.084L17.6448 18.0977L17.6176 18.1158L17.5903 18.134L17.563 18.1567L17.5357 18.1749L17.5085 18.1931L17.4812 18.2113L17.4585 18.234L17.4312 18.2522L17.4039 18.2704L17.3812 18.2931L17.3539 18.3158L17.3312 18.334L17.3039 18.3567L17.2812 18.3795L17.2539 18.4022L17.2312 18.4249L17.2085 18.4477L17.1857 18.4704L17.163 18.4931L17.1403 18.5158L17.1176 18.5386L17.0948 18.5658L17.0721 18.5886L17.0494 18.6158L17.0312 18.6386L17.0085 18.6658L16.9903 18.6886L16.9676 18.7158L16.9494 18.7431L16.9267 18.7658L16.9085 18.7931L16.8903 18.8204L16.8721 18.8477L16.8494 18.8749L16.8312 18.9022L16.813 18.9295L16.7994 18.9567L16.7812 18.984L16.763 19.0113L16.7448 19.0431L16.7312 19.0704L16.713 19.0977L16.6994 19.1295L16.6857 19.1567L16.6676 19.1886L16.6539 19.2158L16.6403 19.2477L16.6267 19.2749L16.613 19.3067L16.5994 19.3386L16.5857 19.3658L16.5767 19.3977L16.563 19.4295L16.5494 19.4613L16.5403 19.4931L16.5312 19.5249L16.5176 19.5567L16.5085 19.5886L16.4994 19.6204L16.4903 19.6522L16.4812 19.684L16.4721 19.7158L16.463 19.7477L16.4539 19.7795L16.4494 19.8158L16.4403 19.8477L16.4357 19.8795L16.4267 19.9158L16.4221 19.9477L16.4176 19.984L16.413 20.0158L16.4085 20.0477L16.4039 20.084L16.3994 20.1158L16.3948 20.1522V20.1886L16.3903 20.2204V20.2567L16.3857 20.2931V20.3249V20.3613V20.3977V20.434V20.4704V20.5022L16.3903 20.5386V20.5749L16.3948 20.6067V20.6431L16.3994 20.6795L16.4039 20.7113L16.4085 20.7477L16.413 20.7795L16.4176 20.8113L16.4221 20.8477L16.4267 20.8795L16.4357 20.9158L16.4403 20.9477L16.4494 20.9795L16.4539 21.0158L16.463 21.0477L16.4721 21.0795L16.4812 21.1113L16.4903 21.1431L16.4994 21.1749L16.5085 21.2067L16.5176 21.2386L16.5312 21.2704L16.5403 21.3022L16.5494 21.334L16.563 21.3658L16.5767 21.3977L16.5857 21.4295L16.5994 21.4567L16.613 21.4886L16.6267 21.5204L16.6403 21.5477L16.6539 21.5795L16.6676 21.6067L16.6857 21.6386L16.6994 21.6658L16.713 21.6977L16.7312 21.7249L16.7448 21.7522L16.763 21.784L16.7812 21.8113L16.7994 21.8386L16.813 21.8658L16.8312 21.8931L16.8494 21.9204L16.8721 21.9477L16.8903 21.9749L16.9085 22.0022L16.9267 22.0295L16.9494 22.0522L16.9676 22.0795L16.9903 22.1067L17.0085 22.1295L17.0312 22.1567L17.0494 22.1795L17.0721 22.2067L17.0948 22.2295L17.1176 22.2567L17.1403 22.2795L17.163 22.3022L17.1857 22.3249L17.2085 22.3477L17.2312 22.3704L17.2539 22.3931L17.2812 22.4158L17.3039 22.4386L17.3312 22.4613L17.3539 22.4795L17.3812 22.5022L17.4039 22.5249L17.4312 22.5431L17.4585 22.5658L17.4812 22.584L17.5085 22.6022L17.5357 22.6204L17.563 22.6386L17.5903 22.6613L17.6176 22.6795L17.6448 22.6976L17.6721 22.7113L17.6994 22.7295L17.7267 22.7476L17.7585 22.7658L17.7857 22.7795L17.813 22.7976L17.8448 22.8113L17.8721 22.8249L17.9039 22.8431L17.9312 22.8567L17.963 22.8704L17.9903 22.884L18.0221 22.8976L18.0539 22.9113L18.0812 22.9249L18.113 22.934L18.1448 22.9476L18.1767 22.9613L18.2085 22.9704L18.2403 22.9795L18.2721 22.9931L18.3039 23.0022L18.3357 23.0113L18.3676 23.0204L18.3994 23.0295L18.4312 23.0386L18.463 23.0476L18.4948 23.0567L18.5312 23.0613L18.563 23.0704L18.5948 23.0749L18.6312 23.084L18.663 23.0886L18.6994 23.0931L18.7312 23.0976L18.763 23.1022L18.7994 23.1067L18.8312 23.1113L18.8676 23.1158H18.9039L18.9357 23.1204H18.9721L19.0085 23.1249H19.0403H19.0767H19.113H19.1494H19.1857H19.2176L19.2539 23.1204H19.2903L19.3221 23.1158H19.3585L19.3948 23.1113L19.4267 23.1067L19.463 23.1022L19.4948 23.0976L19.5267 23.0931L19.563 23.0886L19.5948 23.084L19.6312 23.0749L19.663 23.0704L19.6948 23.0613L19.7312 23.0567L19.763 23.0476L19.7948 23.0386L19.8267 23.0295L19.8585 23.0204L19.8903 23.0113L19.9221 23.0022L19.9539 22.9931L19.9857 22.9795L20.0176 22.9704L20.0494 22.9613L20.0812 22.9476L20.113 22.934L20.1448 22.9249L20.1721 22.9113L20.2039 22.8976L20.2357 22.884L20.263 22.8704L20.2948 22.8567L20.3221 22.8431L20.3539 22.8249L20.3812 22.8113L20.413 22.7976L20.4403 22.7795L20.4676 22.7658L20.4994 22.7476L20.5266 22.7295L20.5539 22.7113L20.5812 22.6976L20.6085 22.6795L20.6357 22.6613L20.663 22.6386L20.6903 22.6204L20.7176 22.6022L20.7448 22.584L20.7676 22.5658L20.7948 22.5431L20.8221 22.5249L20.8448 22.5022L20.8721 22.4795L20.8948 22.4613L20.9221 22.4386L20.9448 22.4158L20.9721 22.3931L20.9948 22.3704L21.0176 22.3477L21.0403 22.3249L21.063 22.3022L21.0857 22.2795L21.1085 22.2567L21.1312 22.2295L21.1539 22.2067L21.1766 22.1795L21.1948 22.1567L21.2176 22.1295L21.2357 22.1067L21.2585 22.0795L21.2812 22.0522L21.2994 22.0295L21.3176 22.0022L21.3357 21.9749L21.3539 21.9477L21.3766 21.9204L21.3948 21.8931L21.413 21.8658L21.4266 21.8386L21.4448 21.8113L21.463 21.784L21.4812 21.7522L21.4948 21.7249L21.513 21.6977L21.5266 21.6658L21.5403 21.6386L21.5585 21.6067L21.5721 21.5795L21.5857 21.5477L21.5994 21.5204L21.613 21.4886L21.6266 21.4567L21.6403 21.4295L21.6494 21.3977L21.663 21.3658L21.6766 21.334L21.6857 21.3022L21.6948 21.2704L21.7085 21.2386L21.7176 21.2067L21.7266 21.1749L21.7357 21.1431L21.7448 21.1113L21.7539 21.0795L21.763 21.0477L21.7721 21.0158L21.7766 20.9795L21.7857 20.9477L21.7903 20.9158L21.7994 20.8795L21.8039 20.8477L21.8085 20.8113L21.813 20.7795L21.8176 20.7477L21.8221 20.7113L21.8266 20.6795L21.8312 20.6431V20.6067L21.8357 20.5749V20.5386L21.8403 20.5022V20.4704V20.434V20.3977V20.3613V20.3249V20.2931L21.8357 20.2567V20.2204L21.8312 20.1886V20.1522L21.8266 20.1158L21.8221 20.084L21.8176 20.0477L21.813 20.0158L21.8085 19.984L21.8039 19.9477L21.7994 19.9158L21.7903 19.8795L21.7857 19.8477L21.7766 19.8158L21.7721 19.7795L21.763 19.7477L21.7539 19.7158L21.7448 19.684L21.7357 19.6522L21.7266 19.6204L21.7176 19.5886L21.7085 19.5567L21.6948 19.5249L21.6857 19.4931L21.6766 19.4613L21.663 19.4295L21.6494 19.3977L21.6403 19.3658L21.6266 19.3386L21.613 19.3067L21.5994 19.2749L21.5857 19.2477L21.5721 19.2158L21.5585 19.1886L21.5403 19.1567L21.5266 19.1295L21.513 19.0977L21.4948 19.0704L21.4812 19.0431L21.463 19.0113L21.4448 18.984L21.4266 18.9567L21.413 18.9295L21.3948 18.9022L21.3766 18.8749L21.3539 18.8477L21.3357 18.8204L21.3176 18.7931L21.2994 18.7658L21.2812 18.7431L21.2585 18.7158L21.2357 18.6886L21.2176 18.6658L21.1948 18.6386L21.1766 18.6158L21.1539 18.5886L21.1312 18.5658L21.1085 18.5386L21.0857 18.5158L21.063 18.4931L21.0403 18.4704L21.0176 18.4477L20.9948 18.4249L20.9721 18.4022L20.9448 18.3795L20.9221 18.3567L20.8948 18.334L20.8721 18.3158L20.8448 18.2931L20.8221 18.2704L20.7948 18.2522L20.7676 18.234L20.7448 18.2113L20.7176 18.1931L20.6903 18.1749L20.663 18.1567L20.6357 18.134L20.6085 18.1158L20.5812 18.0977L20.5539 18.084L20.5266 18.0658L20.4994 18.0477L20.4676 18.0295L20.4403 18.0158L20.413 17.9977L20.3812 17.984L20.3539 17.9704L20.3221 17.9522L20.2948 17.9386L20.263 17.9249L20.2357 17.9113L20.2039 17.8977L20.1721 17.884L20.1448 17.8704L20.113 17.8613L20.0812 17.8477L20.0494 17.834L20.0176 17.8249L19.9857 17.8158L19.9539 17.8022L19.9221 17.7931L19.8903 17.784L19.8585 17.7749L19.8267 17.7658L19.7948 17.7567L19.763 17.7477L19.7312 17.7386L19.6948 17.734L19.663 17.7249L19.6312 17.7204L19.5948 17.7113L19.563 17.7067L19.5267 17.7022L19.4948 17.6977L19.463 17.6931L19.4267 17.6886L19.3948 17.684L19.3585 17.6795H19.3221L19.2903 17.6749H19.2539L19.2176 17.6704H19.1857H19.1494H19.113H19.0767Z" fill="white"/>
<g opacity="0.5">
<path fill-rule="evenodd" clip-rule="evenodd" d="M8.13702 5.89301C8.51365 5.89301 8.81897 5.58779 8.81897 5.21127C8.81897 4.83476 8.51365 4.52954 8.13702 4.52954C7.76039 4.52954 7.45508 4.83476 7.45508 5.21127C7.45508 5.58779 7.76039 5.89301 8.13702 5.89301Z" fill="white"/>
<path d="M6.52378 6.05938C7.17832 6.0962 7.34196 6.86483 6.6056 7.56528C5.61469 8.52756 4.87378 9.73028 4.36014 10.9926C4.36014 10.9926 4.20105 11.2898 3.94196 11.3716C3.41924 11.5357 2.89196 10.9976 3.16924 10.2921C3.81015 8.70165 4.77833 7.21529 6.10105 6.19165C6.22378 6.10438 6.29651 6.05756 6.52378 6.05938Z" fill="white"/>
</g>
</svg>
