<svg width="31" height="33" viewBox="0 0 31 33" fill="none" xmlns="http://www.w3.org/2000/svg">
<path fill-rule="evenodd" clip-rule="evenodd" d="M15.4761 32.0097C23.5094 32.0097 30.0216 25.4975 30.0216 17.4643C30.0216 9.43105 23.5094 2.91882 15.4761 2.91882C7.44289 2.91882 0.930664 9.43105 0.930664 17.4643C0.930664 25.4975 7.44289 32.0097 15.4761 32.0097Z" fill="#FAD3EE"/>
<path fill-rule="evenodd" clip-rule="evenodd" d="M14.5672 31.1007C22.6004 31.1007 29.1126 24.5885 29.1126 16.5552C29.1126 8.52199 22.6004 2.00977 14.5672 2.00977C6.53395 2.00977 0.0217285 8.52199 0.0217285 16.5552C0.0217285 24.5885 6.53395 31.1007 14.5672 31.1007Z" fill="#84035D"/>
<path fill-rule="evenodd" clip-rule="evenodd" d="M14.5671 30.1921C22.0982 30.1921 28.2034 24.0869 28.2034 16.5557C28.2034 9.02453 22.0982 2.91931 14.5671 2.91931C7.03588 2.91931 0.930664 9.02453 0.930664 16.5557C0.930664 24.0869 7.03588 30.1921 14.5671 30.1921Z" fill="#FB1AB4"/>
<path fill-rule="evenodd" clip-rule="evenodd" d="M14.5667 10.6613C14.5667 10.6613 19.9667 9.84412 21.0408 10.9183C22.115 11.9925 21.2978 17.3924 21.2978 17.3924L13.385 25.3052L6.6539 18.5741L14.5667 10.6613Z" fill="#D8049C" stroke="white" stroke-width="1.99711"/>
<path fill-rule="evenodd" clip-rule="evenodd" d="M18.3497 13.6106C18.9274 14.1884 18.9255 15.1326 18.3425 15.7156C17.7595 16.2986 16.815 16.3008 16.2372 15.7231C15.6567 15.1425 15.6617 14.2008 16.2447 13.6178C16.8277 13.0348 17.7691 13.0301 18.3497 13.6106ZM17.6669 14.2931C17.8715 14.4977 17.8694 14.8306 17.6635 15.0365C17.4573 15.2427 17.1247 15.2446 16.9201 15.0399C16.7154 14.8353 16.7172 14.5026 16.9234 14.2964C17.1294 14.0905 17.4623 14.0884 17.6669 14.2931Z" fill="white"/>
<g opacity="0.5">
<path fill-rule="evenodd" clip-rule="evenodd" d="M8.13702 7.0766C8.51365 7.0766 8.81897 6.77138 8.81897 6.39487C8.81897 6.01836 8.51365 5.71313 8.13702 5.71313C7.76039 5.71313 7.45508 6.01836 7.45508 6.39487C7.45508 6.77138 7.76039 7.0766 8.13702 7.0766Z" fill="white"/>
<path d="M6.52369 7.24309C7.17823 7.27991 7.34187 8.04855 6.6055 8.749C5.61914 9.70991 4.88278 10.8985 4.36005 12.1767C4.36005 12.1767 4.09642 12.5976 3.7146 12.5867C2.23733 12.5435 4.1646 8.87127 6.10096 7.37537C6.22369 7.28809 6.29641 7.24127 6.52369 7.24309Z" fill="white"/>
</g>
</svg>
