<svg width="31" height="31" viewBox="0 0 31 31" fill="none" xmlns="http://www.w3.org/2000/svg">
<path fill-rule="evenodd" clip-rule="evenodd" d="M15.4978 30.8264C23.5311 30.8264 30.0433 24.3142 30.0433 16.2809C30.0433 8.2477 23.5311 1.73547 15.4978 1.73547C7.46462 1.73547 0.952393 8.2477 0.952393 16.2809C0.952393 24.3142 7.46462 30.8264 15.4978 30.8264Z" fill="#EFFBC3"/>
<path fill-rule="evenodd" clip-rule="evenodd" d="M14.5889 29.9173C22.6221 29.9173 29.1344 23.4051 29.1344 15.3719C29.1344 7.33864 22.6221 0.826416 14.5889 0.826416C6.55568 0.826416 0.043457 7.33864 0.043457 15.3719C0.043457 23.4051 6.55568 29.9173 14.5889 29.9173Z" fill="#4A8403"/>
<path fill-rule="evenodd" clip-rule="evenodd" d="M14.5888 29.0087C22.1199 29.0087 28.2252 22.9035 28.2252 15.3723C28.2252 7.84112 22.1199 1.7359 14.5888 1.7359C7.05761 1.7359 0.952393 7.84112 0.952393 15.3723C0.952393 22.9035 7.05761 29.0087 14.5888 29.0087Z" fill="#7CE108"/>
<path fill-rule="evenodd" clip-rule="evenodd" d="M14.5894 13.8307C17.5146 13.8307 20.4942 16.5102 20.4942 19.2872C20.4942 22.0642 17.5146 23.0976 14.5894 23.0976C11.6642 23.0976 8.68457 22.0642 8.68457 19.2872C8.68457 16.5102 11.6642 13.8307 14.5894 13.8307Z" fill="#75CF06" stroke="white" stroke-width="1.99856"/>
<path fill-rule="evenodd" clip-rule="evenodd" d="M14.5872 14.8961C16.3265 14.8961 17.7365 13.4767 17.7365 11.7258C17.7365 9.97491 16.3265 8.55554 14.5872 8.55554C12.8479 8.55554 11.438 9.97491 11.438 11.7258C11.438 13.4767 12.8479 14.8961 14.5872 14.8961Z" fill="#75CF06" stroke="white" stroke-width="2.00434"/>
<g opacity="0.5">
<path fill-rule="evenodd" clip-rule="evenodd" d="M8.15875 5.89301C8.53538 5.89301 8.84069 5.58779 8.84069 5.21127C8.84069 4.83476 8.53538 4.52954 8.15875 4.52954C7.78212 4.52954 7.47681 4.83476 7.47681 5.21127C7.47681 5.58779 7.78212 5.89301 8.15875 5.89301Z" fill="white"/>
<path d="M6.54551 6.05938C7.20005 6.0962 7.36369 6.86483 6.62733 7.56528C5.63642 8.52756 4.89551 9.73028 4.38187 10.9926C4.38187 10.9926 4.22278 11.2898 3.96369 11.3716C3.44097 11.5357 2.91369 10.9976 3.19097 10.2921C3.83187 8.70165 4.80005 7.21529 6.12278 6.19165C6.24551 6.10438 6.31824 6.05756 6.54551 6.05938Z" fill="white"/>
</g>
</svg>
